<svg viewBox="0 0 1024 1024" xmlns="http://www.w3.org/2000/svg">
    <defs>
        <linearGradient id="circle-linear" x1="703.76" y1="651.03" x2="703.26" y2="761.11"
            gradientUnits="userSpaceOnUse">
            <stop offset="0" stop-color="#fecd07" />
            <stop offset="0.09" stop-color="#fec107" />
            <stop offset="0.3" stop-color="#fea607" />
            <stop offset="0.53" stop-color="#fe9307" />
            <stop offset="0.76" stop-color="#fe8807" />
            <stop offset="1" stop-color="#fe8407" />
        </linearGradient>
    </defs>
    <circle fill='#fef8e6' cx="511.51" cy="513.6" r="512" />
    <path fill='#fecb2b'
        d="M349.48,368.15a16.73,16.73,0,1,1,0,33.45H293.6a16.73,16.73,0,1,1,0-33.45Zm0,139.39a16.73,16.73,0,1,1,0,33.46H293.6a16.73,16.73,0,1,1,0-33.46Zm317.35-93.67a33.57,33.57,0,0,0-47.41,0L458.82,574.16a22.33,22.33,0,0,0-6.35,12.78L448,620.31a11.16,11.16,0,0,0,12.74,12.52l32.93-5a22.4,22.4,0,0,0,12.48-6.28L666.82,461.2a33.41,33.41,0,0,0,0-47.31ZM349.48,646.94a16.73,16.73,0,1,1,0,33.45H293.6a16.73,16.73,0,1,1,0-33.45Zm329.65-368a67,67,0,0,1,67,66.91V702.7a67,67,0,0,1-67,66.9H388.59a67,67,0,0,1-66.12-55.75h27a50.18,50.18,0,0,0,2.37-100.31l-2.37-.06H321.54v-39h27.94a50.24,50.24,0,0,0,50.23-47.81l.05-2.37a50.22,50.22,0,0,0-47.91-50.12l-2.37-.06H321.54v-39h27.94a50.24,50.24,0,0,0,50.23-47.82l.05-2.36a50.22,50.22,0,0,0-47.91-50.13l-2.37-.05h-27a67,67,0,0,1,66.12-55.76Z" />
    <circle fill='url(#circle-linear)' cx="703.51" cy="705.6" r="64" />
</svg>