<svg viewBox="0 0 1024 1024" xmlns="http://www.w3.org/2000/svg">
    <path
        fill="currentColor"
        d="M679.25 495.48c0-31.68 25.04-57.37 55.92-57.37 30.89 0 55.92 25.68 55.92 57.37s-25.04 57.37-55.92 57.37c-30.89 0-55.92-25.68-55.92-57.37z m-167.13 57.15c-30.89 0-55.92-25.68-55.92-57.37s25.04-57.37 55.92-57.37c30.89 0 55.92 25.68 55.92 57.37s-25.04 57.37-55.92 57.37z m-223.86 0.71c-30.89 0-55.92-25.68-55.92-57.37s25.04-57.37 55.92-57.37c30.89 0 55.92 25.68 55.92 57.37s-25.03 57.37-55.92 57.37z m518.99-402.62H216.32c-83.96 0.1-151.99 69.89-152.09 156.01v347.08c0.1 86.12 68.13 155.92 152.09 156.01h178.74l74.62 79.86c11.02 11.75 26.21 18.4 42.1 18.43 15.89-0.03 31.09-6.69 42.11-18.43l74.57-79.79H807.2c84-0.07 152.08-69.91 152.14-156.08V306.74c-0.1-86.13-68.14-155.92-152.09-156.02z"
    ></path>
</svg>