<svg viewBox="0 0 1024 1024" xmlns="http://www.w3.org/2000/svg">
    <path
        fill="currentColor"
        d="M682.67,213.33A127.86,127.86,0,0,1,787.45,267.8a81.8,81.8,0,0,0-13,8.82l-6,5.45L606.39,444.13a128,128,0,0,1,76.28-230.8Zm-256,0A42.67,42.67,0,0,1,469.33,256V426.67a42.66,42.66,0,0,1-42.66,42.66H256a42.67,42.67,0,0,1-42.67-42.66V256A42.68,42.68,0,0,1,256,213.33Zm0,341.34A42.69,42.69,0,0,1,467,583.49L406.41,644.1,317,554.67ZM855.23,308.92l3.72,3.32a42.66,42.66,0,0,1,3.32,56.61L859,372.58,436.58,795A42.67,42.67,0,0,1,380,798.27L376.24,795,165.05,583.76a42.66,42.66,0,0,1,56.61-63.65l3.73,3.31,181,181L798.61,312.24A42.67,42.67,0,0,1,855.23,308.92ZM768,554.67a42.67,42.67,0,0,1,42.67,42.66V768A42.68,42.68,0,0,1,768,810.67H597.33A42.67,42.67,0,0,1,554.67,768l0-30.85L737.17,554.67ZM213.31,692.35,331.62,810.67H256A42.68,42.68,0,0,1,213.33,768Z" />
</svg>