<svg viewBox="0 0 1024 1024" xmlns="http://www.w3.org/2000/svg">
    <path
        fill="currentColor"
        d="M512 328.7l-45.93 93.06a34.12 34.12 0 0 1-25.7 18.67l-102.7 14.92 74.32 72.44a34.142 34.142 0 0 1 9.82 30.21l-17.55 102.3 91.86-48.3a34.126 34.126 0 0 1 31.77 0l91.86 48.29-17.55-102.28a34.115 34.115 0 0 1 9.82-30.21l74.32-72.44-102.7-14.92a34.143 34.143 0 0 1-25.7-18.67L512 328.7z m-30.61-15.11c8.34-16.9 28.81-23.85 45.71-15.5a34.117 34.117 0 0 1 15.5 15.5l45.93 93.06 102.7 14.92c18.66 2.71 31.58 20.03 28.87 38.69a34.15 34.15 0 0 1-9.95 19.53l-74.32 72.44 17.54 102.29c3.19 18.58-9.29 36.23-27.87 39.41a34.13 34.13 0 0 1-21.65-3.43L512 642.2l-91.86 48.31c-15.89 8.35-35.37 2.93-44.76-12.02l-1.33-2.31a34.141 34.141 0 0 1-3.43-21.65l17.54-102.29-74.32-72.44c-13.5-13.16-13.78-34.77-0.62-48.27a34.121 34.121 0 0 1 19.53-9.95l102.7-14.92 45.94-93.07zM512 221.87c-160.24 0-290.13 129.9-290.13 290.13S351.76 802.13 512 802.13 802.13 672.24 802.13 512 672.24 221.87 512 221.87z m0-51.2c188.51 0 341.33 152.82 341.33 341.33S700.51 853.33 512 853.33 170.67 700.51 170.67 512 323.49 170.67 512 170.67z"
    ></path>
</svg>