<svg viewBox="0 0 1024 1024" xmlns="http://www.w3.org/2000/svg">
    <path
        fill="currentColor"
        d="M764.06 232.75a82.52 82.52 0 0 1 81.79 93.32l-0.89 5.36-36.86 184.3a82.49 82.49 0 0 1-68 65.31l-5.41 0.67-285.4 25.95a22.5 22.5 0 0 1-7.1-44.34l3-0.48L730.6 536.9a37.5 37.5 0 0 0 32.4-26.31l0.93-3.68 36.9-184.31a37 37 0 0 0 0.73-7.35 37.51 37.51 0 0 0-33.66-37.31l-3.84-0.19H387.25A22.5 22.5 0 0 1 384.2 233l3.05-0.21z m-546-30a82.51 82.51 0 0 1 79.75 61.35l1.15 5 70.71 353.5a37.49 37.49 0 0 0 33 30l3.79 0.19h370.79a22.5 22.5 0 0 1 3 44.79l-3 0.21H406.44a82.51 82.51 0 0 1-79.75-61.35l-1.15-5-70.71-353.54a37.5 37.5 0 0 0-33-30l-3.79-0.19h-40.43a22.5 22.5 0 0 1-3.05-44.71l3.05-0.21z m544.19 532.5a45 45 0 1 1-45 45 45 45 0 0 1 45-45z m-360 0a45 45 0 1 1-45 45 45 45 0 0 1 45-45z"
    ></path>
</svg>