<svg viewBox="0 0 1024 1024" xmlns="http://www.w3.org/2000/svg">
    <defs>
        <linearGradient id="linear_6" x1="512.36" y1="275.63" x2="511.36" y2="800.05"
            gradientUnits="userSpaceOnUse">
            <stop offset="0" stop-color="#fffdf9" />
            <stop offset="0.14" stop-color="#f8eed7" />
            <stop offset="0.3" stop-color="#f1e0b5" />
            <stop offset="0.47" stop-color="#ecd59a" />
            <stop offset="0.64" stop-color="#e8cc87" />
            <stop offset="0.81" stop-color="#e6c87c" />
            <stop offset="1" stop-color="#e5c678" />
        </linearGradient>
    </defs>
    <path fill="url(#linear_6)"
        d="M747.85,756.88H276.15a12.37,12.37,0,0,0-12.44,12.33v29.65a12.37,12.37,0,0,0,12.44,12.32h471.7a12.36,12.36,0,0,0,12.43-12.32V769.21A12.36,12.36,0,0,0,747.85,756.88Zm44.07-306.21-141.63,72.7a12.79,12.79,0,0,1-16.79-4.62L522.88,341.54c-.46-.7-1.16-1-1.63-1.54a42.68,42.68,0,1,0-18.5,0c-.55.54-1.24.84-1.63,1.54L390.5,518.75a13,13,0,0,1-16.79,4.62l-141.63-72.7c-9.49-4.85-20.53,3.23-18.5,13.71L261.77,711.6a12.79,12.79,0,0,0,12.59,10.32H749.71a12.8,12.8,0,0,0,12.6-10.32l48.11-247.3C812.44,453.9,801.48,445.74,791.92,450.67Z" />
</svg>