<svg xmlns="http://www.w3.org/2000/svg" viewBox="0 0 1024 1024">
    <path fill="#333333"
        d="M512,234.87A249,249,0,0,1,752,417.55l1,3.83,2.08,1a163.62,163.62,0,0,1,91,139.75l.15,7A163.55,163.55,0,0,1,682.67,732.65a21.34,21.34,0,1,1,0-42.67,120.92,120.92,0,0,0,49.85-231.07l-5.65-2.39-10.7-4.21-2.37-11.25a206.31,206.31,0,0,0-391-39.56l-2.92,7.05-4.37,11.17-11.82,2.06A135.12,135.12,0,0,0,327.11,690a21.34,21.34,0,0,1,0,42.67,177.8,177.8,0,0,1-44.25-350l1.84-.46,1.77-3.89A249,249,0,0,1,503.87,235Z" />
    <path fill="#b11111"
        fill-rule="evenodd"
        d="M439.76,626a14.22,14.22,0,0,1-11.65-22.37l72.24-103.2a14.2,14.2,0,0,1,23.3,0l72.24,103.2A14.21,14.21,0,0,1,584.24,626h-43.8v99.56a14.22,14.22,0,0,1-14.22,14.22H497.78a14.22,14.22,0,0,1-14.22-14.22V626Z" />
</svg>