<svg viewBox="0 0 1024 1024" xmlns="http://www.w3.org/2000/svg">
    <path
        fill="currentColor"
        d="M833.32 399a160 160 0 0 1 0 226.27A32 32 0 0 1 788.06 580a96 96 0 0 0 0-135.77A32 32 0 0 1 833.32 399zM640 213.34L378.37 409.6a85.33 85.33 0 0 1-51.2 17.07H256v170.66h71.32a85.3 85.3 0 0 1 51.22 17.09L640 810.63z m-51.21-68.26a85.34 85.34 0 0 1 136.54 68.26v597.29a85.32 85.32 0 0 1-136.55 68.25L327.32 682.67H256a85.33 85.33 0 0 1-85.33-85.34V426.67A85.33 85.33 0 0 1 256 341.33h71.17z"
    ></path>
</svg>