<svg viewBox="0 0 1024 1024" xmlns="http://www.w3.org/2000/svg">
    <path
        fill="currentColor"
        d="M261.81 542.44h93.87a62.73 62.73 0 0 1 62.58 62.88v157.19a62.73 62.73 0 0 1-62.58 62.88h-93.87a62.72 62.72 0 0 1-62.57-62.88V542.44c0-173.63 140.08-314.38 312.88-314.38S825 368.81 825 542.44v220.07a62.72 62.72 0 0 1-62.57 62.88h-93.86A62.73 62.73 0 0 1 606 762.51V605.32a62.73 62.73 0 0 1 62.58-62.88h93.87c0-138.9-112.07-251.51-250.32-251.51S261.81 403.54 261.81 542.44z"
    ></path>
</svg>