<svg xmlns="http://www.w3.org/2000/svg" viewBox="0 0 1024 1024">
    <path fill="#333333"
        d="M361.86,263.11a49.77,49.77,0,0,1,32.62,12.18l3.26,3.09,37.92,39.44a7.09,7.09,0,0,0,3.24,1.92l1.89.26H541.23a21.33,21.33,0,0,1,2.9,42.47l-2.9.2H440.79a49.77,49.77,0,0,1-32.62-12.18l-3.26-3.1L367,308a7.19,7.19,0,0,0-3.24-1.93l-1.89-.25H256.21a7.12,7.12,0,0,0-6.93,5.48l-.18,1.63V455.11H469.54a14.23,14.23,0,0,1,0,28.45H249.1V711.11a7.09,7.09,0,0,0,5.48,6.92l1.63.19h512a7.12,7.12,0,0,0,6.92-5.48l.19-1.63v-282a21.33,21.33,0,0,1,42.47-2.9l.19,2.9v282a49.77,49.77,0,0,1-45.69,49.61l-4.08.17h-512a49.79,49.79,0,0,1-49.62-45.7l-.16-4.08V312.89a49.77,49.77,0,0,1,45.69-49.61l4.09-.17Z" />
    <path fill="#b11111"
        fill-rule="evenodd"
        d="M668.73,298.78A14.22,14.22,0,0,1,683,313v56.89h56.89a14.22,14.22,0,0,1,14.22,14.22v28.45a14.22,14.22,0,0,1-14.22,14.22H682.92l0,56.89a14.22,14.22,0,0,1-14.22,14.22H640.28a14.22,14.22,0,0,1-14.22-14.22l0-56.89H569.17A14.22,14.22,0,0,1,555,412.56V384.11a14.22,14.22,0,0,1,14.22-14.22h56.89V313a14.22,14.22,0,0,1,14.22-14.22Z" />
</svg>