<svg viewBox="0 0 1024 1024" xmlns="http://www.w3.org/2000/svg">
    <path
        fill="currentColor"
        d="M256.09,314.79h-32c-9.24,0-17.78-5.78-22.4-15.17a34.94,34.94,0,0,1,0-30.34c4.62-9.39,13.16-15.17,22.4-15.17h51.12m472-49.16,48.66,28.82c26.88,15.92,36.09,51.17,20.57,78.73L778.1,380.75a55.42,55.42,0,0,0-41.22-18.48h-143l76.65-136.22C686,198.48,720.4,189,747.28,205ZM274.62,254.11c9.66,0,19.72,6.34,24.18,16.38a33,33,0,0,1,2.12,6.62L330.8,405.75a55.4,55.4,0,0,1,37.46-14.66H736.88a55.65,55.65,0,0,1,43.47,21.09A58.73,58.73,0,0,1,792,460L758.29,632.94C753,659.89,730,679.29,703.17,679.28H402c-26.8,0-49.87-19.39-55.13-46.34L317.32,481.5c-12.39,1.54-24.26-7.64-27.65-22.21l-34-145.87M650.91,708.1c23.28,0,42.14,19.35,42.14,43.23s-18.86,43.22-42.14,43.22-42.14-19.35-42.14-43.22S627.63,708.1,650.91,708.1Zm-196.67,0c23.27,0,42.14,19.35,42.14,43.23s-18.87,43.22-42.14,43.22-42.15-19.35-42.15-43.22S431,708.1,454.24,708.1Z" />
</svg>