<svg viewBox="0 0 1024 1024" xmlns="http://www.w3.org/2000/svg">
    <path
        fill="currentColor"
        d="M512.07 291.56A21.34 21.34 0 0 1 533.21 310l0.19 2.9v228.17l43.77-43.75a21.35 21.35 0 0 1 28-1.91l2.18 1.91a21.33 21.33 0 0 1 1.91 28l-1.91 2.18-70 70a35.55 35.55 0 0 1-47.58 2.44l-2.7-2.44-70.35-70.35a21.34 21.34 0 0 1 28-32.08l2.18 1.91 43.82 43.79V312.89a21.33 21.33 0 0 1 21.35-21.33z m-142.4 56.8a21.33 21.33 0 0 1 2.89 42.47l-2.89 0.19h-56.78a35.56 35.56 0 0 0-35.37 31.92l-0.19 3.64v227.55a35.57 35.57 0 0 0 31.92 35.38l3.64 0.18h398.22a35.56 35.56 0 0 0 35.37-31.92l0.19-3.64V426.58a35.56 35.56 0 0 0-31.92-35.37l-3.64-0.19h-56.33a21.33 21.33 0 0 1-2.9-42.47l2.9-0.19h56.33a78.22 78.22 0 0 1 78.08 73.45l0.14 4.77v227.55a78.22 78.22 0 0 1-73.45 78.08l-4.77 0.15H312.89a78.23 78.23 0 0 1-78.08-73.46l-0.14-4.77V426.58a78.22 78.22 0 0 1 73.45-78.08l4.77-0.14z"
    ></path>
</svg>