<svg viewBox="0 0 1024 1024" xmlns="http://www.w3.org/2000/svg">
    <path
        fill="currentColor"
        d="M776.79 212.05a26.56 26.56 0 0 1 0 10.36l-19.9 99.47a26.4 26.4 0 0 1-44.55 13.49l-29.27-29.26-168 168a41.4 41.4 0 0 1-56.32 2.07l-2.17-2-83.07-82.75-102.69 102.68a15 15 0 0 1-22.56-19.67l1.34-1.54 113.26-113.26a15 15 0 0 1 15.88-3.44 14.32 14.32 0 0 1 3.95 2.14l1.54 1.33 93.56 93.19a11.4 11.4 0 0 0 14.7 1.19l1.41-1.2 168-168-29.09-29.1a26.4 26.4 0 0 1 13.49-44.55l99.47-19.9a26.42 26.42 0 0 1 31.02 20.75z m-17.92 240.52a20 20 0 0 1 20 20v340a20 20 0 0 1-20 20h-80a20 20 0 0 1-20-20v-340a20 20 0 0 1 20-20z m-200 100a20 20 0 0 1 20 20v240a20 20 0 0 1-20 20h-80a20 20 0 0 1-20-20v-240a20 20 0 0 1 20-20z m-200 40a20 20 0 0 1 20 20v200a20 20 0 0 1-20 20h-80a20 20 0 0 1-20-20v-200a20 20 0 0 1 20-20z"
    ></path>
</svg>