<svg xmlns="http://www.w3.org/2000/svg" viewBox="0 0 1024 1024">
    <path
        fill="currentColor"
        d="M622,744.86a23.15,23.15,0,0,1-46.3,0V383a23.15,23.15,0,1,1,46.3,0Zm-174.67,0a23.15,23.15,0,0,1-46.3,0V383a23.15,23.15,0,0,1,46.3,0ZM796,231.73H632.87s-24.64.77-44-20.21c-7.8-9-20.85-17.84-42.32-18.6H480.08c-21.46.76-34.52,9.57-42.32,18.6-19.35,21-44,20.21-44,20.21H230.65a19,19,0,0,0-19,19v69.81c0,20.2,19.56,19.8,19.56,19.8h37.38V827.72s-3,33.06,30.09,34.84H526l23.11.18h178.3l.58-.18c33.06-1.78,30.09-34.84,30.09-34.84V340.35h37.38s19.6.4,19.57-19.8V250.74A19,19,0,0,0,796,231.73Z" />
</svg>