<svg viewBox="0 0 1024 1024" xmlns="http://www.w3.org/2000/svg">
    <path
        fill="currentColor"
        d="M563.07 248.16l-48.06 48H379.69a24 24 0 0 1-17-7l-20.48-20.49a12 12 0 0 1 8.49-20.48z m165.79-38.55l84.86 84.85a30 30 0 0 1 0 42.43L588.86 561.75a30.06 30.06 0 0 1-18.23 8.64l-130.78 13.08 13.09-130.78a30 30 0 0 1 8.64-18.22l224.86-224.86a30 30 0 0 1 42.42 0z m-443.81 62.57a24 24 0 0 1 20 10.7l33.67 50.58a24 24 0 0 0 20 10.7H467l-74.86 74.89a30 30 0 0 0-8.53 17.23l-0.19 3.88h-61.68a24 24 0 0 0-4.84 47.51l4.84 0.49h63.12l1.5 48h-64.62a24 24 0 0 0-4.84 47.51l4.84 0.49h66.12l1.5 48h-67.62a24 24 0 0 0-4.84 47.51l4.84 0.49h288a24 24 0 0 0 4.83-47.51l-4.83-0.49h-6.72l1.25-1 125.48-125.54v294.56a24 24 0 0 1-24 24h-480a24 24 0 0 1-24-24v-504a24 24 0 0 1 24-24z"
    ></path>
</svg>