<svg viewBox="0 0 1024 1024" xmlns="http://www.w3.org/2000/svg">
    <path
        fill="currentColor"
        d="M893.95 437.97c22.95 0 41.56 18.61 41.56 41.56 0 21.04-15.63 38.43-35.92 41.18l-5.64 0.38H727.72c-22.95 0-41.56-18.61-41.56-41.56 0-21.04 15.63-38.43 35.92-41.18l5.64-0.38h166.23z m0 166.24c22.95 0 41.56 18.61 41.56 41.56 0 21.04-15.63 38.43-35.92 41.18l-5.64 0.38H727.72c-22.95 0-41.56-18.61-41.56-41.56 0-21.04 15.63-38.43 35.92-41.18l5.64-0.38h166.23zM198.2 146.9l197.04 270.97V739.8l166.23 110.82V417.87l197.04-270.81-560.31-0.16z m695.75 623.54c22.95 0 41.56 18.61 41.56 41.56 0 21.04-15.63 38.43-35.92 41.18l-5.64 0.38H727.72c-22.95 0-41.56-18.61-41.56-41.56 0-21.04 15.63-38.43 35.92-41.18l5.64-0.38h166.23zM812.84 63.95c11.71 0 23.12 3.71 32.59 10.6 22.85 16.62 29.27 47.42 15.96 71.53l-3.74 5.88L644.59 444.9l0.01 457.5c0 30.6-24.81 55.41-55.41 55.41-10.94 0-21.63-3.24-30.74-9.31L336.81 800.74a55.4 55.4 0 0 1-24.67-46.1l-0.01-309.74L99.08 151.95a55.415 55.415 0 0 1-10.16-25.61l-0.44-6.98c0-28.42 21.39-51.84 48.95-55.04l6.46-0.37h668.95z"
    ></path>
</svg>