<svg viewBox="0 0 1024 1024"
    xmlns="http://www.w3.org/2000/svg">
    <path
        fill="currentColor"
        d="M543.8 326.63l0.87 51.75 22.56-18.88-23.43-32.87z m-69.11-3.91l-119.9 170.45 33.84 16.12 87.94-73.81-1.88-112.76z m3.41 201.62l-20.9 17.5 21.36 10.18-0.46-27.68z m129.33-108.48l-61.24 51.38 1.98 117.87 34.16 16.25 127.36-42.08-102.26-143.42zM314.51 550.49l-35.91 51.06 51.84-43.46-15.93-7.6z m84.48 40.2L258.84 708.24l221.1-73.07-0.09-6.03-80.86-38.45z m352.7 27.44l-79.1 26.11 147.8 70.31-68.7-96.42zM481.18 707.5l-172.02 56.82 172.98 1.15-0.96-57.97z m96.51-31.86l-27.81 9.21 1.38 81.08 219.35 1.43-192.92-91.72z m350.43 161.71l-832.24-5.38-4.55-0.68-4.97-1.48-3.5-1.56-4.07-2.46-2.28-1.74-3.75-3.64-2.85-3.71-2.3-4.02-1.75-4.31-0.8-2.82-0.85-5.41 0.03-5.45 1.08-6.19 2.07-5.63 3.02-5.18 410.36-583.46 1.17-1.34-2.76 3.43 1.88-2.44 3.21-3.32 3.72-2.92 4.38-2.54 4.61-1.84 5.95-1.32 3.91-0.29 3.9 0.15 4.75 0.8 5.55 1.83 3.91 1.98 4.78 3.4 3.33 3.22 2.48 3.09 102.4 143.55c1.03 0.96 2.02 2 2.95 3.11 2.17 2.59 3.9 5.4 5.19 8.35l308.76 433.02 1.46 2.48-2.36-3.8a35.53 35.53 0 0 1 3.11 5.29l2.13 5.8 0.95 5 0.22 4.19-0.54 5.93-1.18 4.63-1.62 4.04-1.48 2.8-2.29 3.39-3.43 3.84-2.7 2.34-2.83 1.99-2.79 1.59-5.6 2.27-3.85 0.94-3.92 0.48z"
    ></path>
</svg>