<svg viewBox="0 0 1024 1024" xmlns="http://www.w3.org/2000/svg">
    <path
        fill="currentColor"
        d="M650.18 390.56a20 20 0 0 1 3.59 39.68l-3.59 0.32h-280a20 20 0 0 1-3.6-39.68l3.6-0.32z m-80 120a20 20 0 0 1 3.59 39.68l-3.59 0.32h-200a20 20 0 0 1-3.6-39.68l3.6-0.32z m181.61-309.71a30 30 0 0 1 4.07 59.73l-4.07 0.27H340.36c-19.65 0-36.07 15.33-38.31 35.31l-0.26 4.69v420c0 20.65 15 37.44 34.1 39.74l4.47 0.26h342.86c19.65 0 36.06-15.32 38.31-35.31l0.26-4.69V338.69a30 30 0 0 1 59.72-4.07l0.28 4.07v382.16c0 52.89-40.54 96.4-92.08 99.79l-6.49 0.21H340.36c-52.4 0-95-41.38-98.36-93.44l-0.21-6.56v-420c0-52.88 40.54-96.39 92.07-99.78l6.5-0.22z"
    ></path>
</svg>