<svg viewBox="0 0 1024 1024" xmlns="http://www.w3.org/2000/svg">
    <path
        fill="currentColor"
        d="M320.27,245.07c1.46-22.87,37.4-29.54,41.53-30.27,33.47-5.6,78.4,12.93,113.8,77.27a5.34,5.34,0,0,1-4.67,7.93h-92C341.07,291.33,319,265,320.27,245.07Zm231.8,47c35.46-64.34,80.4-82.94,113.8-77.27,4.06.67,40,7.4,41.53,30.27C708.67,265,686.67,291.4,648.73,300h-92A5.34,5.34,0,0,1,552.07,292.07ZM768,300H740a5.34,5.34,0,0,1-4.4-8.33C746,276.2,751.07,259.2,750,242.33c-1.27-20.13-11.4-37.6-29.2-50.53-12.8-9.27-29.8-16-47.8-19.07-32.67-5.46-67.27,3.8-97.53,26.2q-24.4,18.1-44.27,46.14a21.32,21.32,0,0,1-34.73,0c-13.2-18.67-28-34.14-44.27-46.14-30.2-22.4-64.8-31.73-97.47-26.2-18,3.07-35,9.8-47.8,19.07-17.8,12.87-27.93,30.33-29.2,50.53-1.06,16.87,3.94,33.87,14.4,49.34a5.31,5.31,0,0,1-4.4,8.33H256a85.33,85.33,0,0,0-85.33,85.33v85.34a21.32,21.32,0,0,0,16,20.66H837.33a21.32,21.32,0,0,0,16-20.66V385.33A85.33,85.33,0,0,0,768,300ZM533.33,534V785.33a5.35,5.35,0,0,1-5.33,5.34H496a5.35,5.35,0,0,1-5.33-5.34V534H213.33V790.67A42.71,42.71,0,0,0,256,833.33H768a42.66,42.66,0,0,0,42.67-42.66V534Z" />
</svg>