<svg xmlns="http://www.w3.org/2000/svg" viewBox="0 0 1024 1024">
    <path fill="currentColor"
        d="M673.31,629.43a42.84,42.84,0,0,1-30.42-12.59L512.22,486.26,381.64,616.84A43,43,0,0,1,320.81,556L458.39,418.43a76,76,0,0,1,107.67,0L703.72,556a43,43,0,0,1-30.41,73.42ZM351.14,361.68a43,43,0,0,1-30.42-73.42L458.31,150.59a76,76,0,0,1,107.66,0L703.64,288.26a43,43,0,0,1-60.83,60.83L512.22,218.34,381.64,349A42.78,42.78,0,0,1,351.14,361.68ZM702.22,894.34H321.81a173.36,173.36,0,0,1-128-56.58L96.56,731a43,43,0,0,1,63.58-57.92l97.25,106.75a87.46,87.46,0,0,0,64.42,28.5H702.14a87.51,87.51,0,0,0,64.5-28.5l97.25-106.75A43,43,0,0,1,927.47,731L830.22,837.76A173.36,173.36,0,0,1,702.22,894.34Z" />
</svg>