<svg viewBox="0 0 1024 1024" xmlns="http://www.w3.org/2000/svg">
    <path
        fill="currentColor"
        d="M513.08,406.06A106.67,106.67,0,1,0,619.75,512.73,106.66,106.66,0,0,0,513.08,406.06Zm0-64A170.67,170.67,0,1,1,342.42,512.73,170.67,170.67,0,0,1,513.08,342.06ZM367.4,191.49l-10.35,4.82a352.12,352.12,0,0,0-67.35,43.23l-7.84,6.65,1.58,4.32a163.08,163.08,0,0,1-10.1,125.82l-5,9a170.53,170.53,0,0,1-99.74,76.36L163.5,463l-1,6.89q-1.68,14-2.26,28.28L160,512.47A354.1,354.1,0,0,0,163.9,565L166.49,580l6,1.7a170.71,170.71,0,0,1,90.6,67l5.24,8.23a163,163,0,0,1,19.08,120.43l-1.33,5,8,6.59a351,351,0,0,0,64.39,40.36l8.92,4.07,5.45-4.81c34.48-29.14,79.58-46.77,127.94-49.14l11.21-.27c52.6,0,102.06,18.05,139.18,49.48l5.33,4.79,9.32-4.24a351.55,351.55,0,0,0,65.09-41l8.45-7.06-1.65-6.95A162.89,162.89,0,0,1,752.47,666l5.06-9.13a170.2,170.2,0,0,1,94-74.61l5.83-1.75,2.69-15.33a350.56,350.56,0,0,0,3.48-35l.44-17.72a355.78,355.78,0,0,0-2.56-42.68l-1-7.24-5-1.35a170.84,170.84,0,0,1-92.58-67.47l-5.33-8.37a163,163,0,0,1-15.48-133.55l1.5-4.34-8.27-7.14a352,352,0,0,0-68-43.86l-10.63-4.94-8.71,7.52c-34.14,27.63-78,44.25-125,46.49l-11,.26c-52.61,0-102.07-18.05-139.19-49.49ZM639,115.55l21.3,8.13a416.17,416.17,0,0,1,144.13,92.9l17,16.77L810.15,254.4a99.21,99.21,0,0,0,2.35,98.19c16.93,28.39,46.4,47,79.73,51.17l22.83,2.83,4.59,22.54a419.46,419.46,0,0,1-4.44,186.07L910,635.75,889,639c-32.08,4.91-60.16,23.24-76.53,50.7a99.22,99.22,0,0,0-6.64,89.22l8.35,20.29-15.91,15.1a415.76,415.76,0,0,1-138,87l-21.13,8.07-14.66-17.24c-25.82-30.37-67.14-48.94-112.49-48.94S425.32,861.7,399.46,892L384.83,909.2l-21.08-8a414.46,414.46,0,0,1-136.64-85.58l-16.26-15.29,8.72-20.53a99.09,99.09,0,0,0-6.22-90.14c-16.63-27.9-45.36-46.39-78-50.95l-21.29-3-5.29-20.84a418.82,418.82,0,0,1-4.43-185.53L109,406.47l23.21-2.56c33.89-3.74,64-22.49,81.19-51.32a99.43,99.43,0,0,0,1.91-99.17l-11.57-21.23L221,215.26a415.79,415.79,0,0,1,142.76-91.58l21.14-8.06,14.65,17.24C425.32,163.23,466.65,181.8,512,181.8c44.27,0,84.78-17.7,110.14-46.14Z" />
</svg>