<svg viewBox="0 0 1024 1024" xmlns="http://www.w3.org/2000/svg">
    <path
        d="M197.33 64.22h628.24c53.38 0 96.65 43.27 96.65 96.65v531.58c0 53.38-43.27 96.65-96.65 96.65H464.51L270.87 957.38V789.11h-73.54c-53.38 0-96.65-43.27-96.65-96.65V160.87c0-53.37 43.27-96.65 96.65-96.65z"
        fill="#D3B562"></path>
    <path
        d="M234.09 112.5h556.14c46.23 0 83.71 37.48 83.71 83.71v460.43c0 46.23-37.48 83.71-83.71 83.71H441.5L323.78 846.1V740.36h-89.7c-46.23 0-83.71-37.48-83.71-83.71V196.22c0-46.24 37.48-83.72 83.72-83.72z"
        fill="#F4D972"></path>
    <path d="M588.22 179.86v291.69H442.37V179.86h145.85z m0 340.31v145.85H442.37V520.17h145.85z"
        fill="#C68E4C"></path>
</svg>