<svg viewBox="0 0 1024 1024" xmlns="http://www.w3.org/2000/svg">
    <path
        fill="currentColor"
        d="M651 283.59a104.89 104.89 0 0 1 86 44.68 66.56 66.56 0 0 0-10.69 7.24l-4.95 4.49-132.93 133A105 105 0 0 1 651 283.59z m-210 0a35 35 0 0 1 35 35v140a35 35 0 0 1-35 35H301a35 35 0 0 1-35-35v-140a35 35 0 0 1 35-35z m0 280a35 35 0 0 1 33.12 23.64L424.38 637 351 563.59zM792.56 362l3.05 2.72a35 35 0 0 1 2.72 46.45l-2.72 3.05L449.13 760.7a35 35 0 0 1-46.45 2.72l-3.05-2.72-173.24-173.24a35 35 0 0 1 46.44-52.22l3.06 2.72 148.46 148.47 321.76-321.71a35 35 0 0 1 46.45-2.72zM721 563.59a35 35 0 0 1 35 35v140a35 35 0 0 1-35 35H581a35 35 0 0 1-35-35v-25.3l149.73-149.7zM266 676.54l97 97.05h-62a35 35 0 0 1-35-35z"
    ></path>
</svg>