<svg viewBox="0 0 1024 1024" xmlns="http://www.w3.org/2000/svg">
    <path
        fill="currentColor"
        d="M583.37,291.54A21.34,21.34,0,0,1,604.51,310l.19,2.89,0,360,32.38-45.35a21.34,21.34,0,0,1,36.38,22.08l-1.65,2.7L600.68,752l-.42.62A21.41,21.41,0,0,1,594,758l-1,.53a16.39,16.39,0,0,1-1.7.78l-.76.29c-.66.24-1.36.45-2.07.63l-.83.19c-.59.12-1.21.22-1.84.29s-1,.11-1.54.14h-1.49c-.5,0-1,0-1.51-.08l2.07.07a21,21,0,0,1-3.19-.24,14.5,14.5,0,0,1-2.13-.4,4.76,4.76,0,0,0-.61-.19,15.91,15.91,0,0,1-1.92-.62c-.32-.17-.66-.31-1-.46a13.31,13.31,0,0,1-1.74-.85,2.32,2.32,0,0,0-.43-.29,10.34,10.34,0,0,1-1.43-.9A21.31,21.31,0,0,1,562,738.36V312.87A21.34,21.34,0,0,1,583.37,291.54Zm-139.87.15-2.45-.12a21.42,21.42,0,0,1,3.12.23,16,16,0,0,1,2.19.41,6.4,6.4,0,0,0,.62.2,15,15,0,0,1,2,.66c.23.13.48.24.72.35a12.53,12.53,0,0,1,1.81.87c.24.17.48.32.71.46a11,11,0,0,1,1.24.77,21.32,21.32,0,0,1,8.91,18.56l0,425.49a21.33,21.33,0,0,1-42.47,2.9l-.2-2.9v-360l-32.35,45.4A21.33,21.33,0,0,1,351,402.85l1.64-2.7,71.11-99.65a21.1,21.1,0,0,1,9.23-7.34c.46-.19.93-.36,1.41-.52s.91-.28,1.36-.4,1-.23,1.46-.32.88-.15,1.32-.2c.6-.08,1.21-.13,1.82-.15h1A19.78,19.78,0,0,1,443.5,291.69Z" />
</svg>