<svg xmlns="http://www.w3.org/2000/svg" viewBox="0 0 1024 1024">
    <path fill="#333"
        fill-rule="evenodd"
        d="M243.18,896a42.67,42.67,0,0,1-37.3-63.39l29.94-53.82A382.71,382.71,0,0,1,128,512c0-212.08,171.92-384,384-384S896,299.92,896,512,724.08,896,512,896Z" />
    <path fill="#878787"
        fill-rule="evenodd"
        d="M512,128a382.2,382.2,0,0,1,213.35,64.67l0,63.33A85.33,85.33,0,0,1,640,341.33H384A85.33,85.33,0,0,1,298.67,256l-.05-63.31A382.24,382.24,0,0,1,512,128Z" />
    <path fill="#fff"
        d="M418.91,438.29A32,32,0,0,1,438.57,499l-4.14,1.34L263.76,543a32,32,0,0,1-19.66-60.75l4.14-1.33Z" />
    <path fill="#fff"
        d="M566.29,461.57a32,32,0,0,1,34.52-24.05l4.28.77L775.76,481a32,32,0,0,1-11.24,62.85l-4.28-.77L589.57,500.38A32,32,0,0,1,566.29,461.57Z" />
</svg>