<svg viewBox="0 0 1024 1024"
    xmlns="http://www.w3.org/2000/svg">
    <path
        fill="currentColor"
        d="M254.55 602.83c-17.61-9.61-40.02-4.8-52.83 11.21l-32.02 38.42c-14.41 17.61-11.21 43.22 4.8 56.03h1.6l4.8 3.2c12.81 9.61 30.42 11.21 44.82 3.2 1.6-1.6 1.6 0 3.2 1.6v3.2c-3.2 14.41 3.2 30.42 14.41 38.42l3.2 3.2c12.81 9.61 28.82 11.21 43.22 4.8 1.6-1.6 3.2 0 3.2 1.6v1.6c-1.6 12.81 4.8 27.21 16.01 36.82l3.2 1.6c12.81 9.61 28.82 11.21 43.22 3.2 1.6-1.6 3.2 0 3.2 1.6v1.6c1.6 9.61 8 19.21 16.01 25.61l1.6 1.6c17.61 12.81 43.22 11.21 57.63-8 1.6-1.6 3.2-3.2 3.2-4.8l4.8-9.61c9.61-17.61 8-38.42-8-51.23-11.21-11.21-28.82-12.81-44.82-8-1.6 0-1.6 0-1.6-1.6v-1.6c1.6-22.41-16.01-40.02-38.42-43.22-4.8 0-11.21 1.6-16.01 3.2-6.4 1.6-4.8-4.8-4.8-4.8 8-20.81-1.6-43.22-22.41-52.83-11.21-4.8-24.01-3.2-35.22 1.6-4.8 1.6-3.2-3.2-3.2-3.2 12.82-19.2 6.42-43.21-12.79-54.42zM91.26 625.24h46.42l33.62-40.02c28.82-35.22 81.64-40.02 116.86-11.21 12.81 11.21 22.41 25.61 27.21 41.62 28.82 8 49.63 28.82 57.63 57.63 20.81 6.4 38.42 19.21 48.03 38.42 17.61 3.2 33.62 11.21 46.42 24.01 27.21 27.21 32.02 70.44 11.21 102.45l-4.8 8v1.6c22.41 14.41 51.23 9.61 67.24-11.21 8-11.21 9.61-24.01 8-36.82v-1.6h1.6l3.2 3.2c16.01 16.01 43.22 19.21 62.43 6.4 16.01-11.21 22.41-30.42 19.21-48.03v-1.6h1.6l3.2 3.2c16.01 16.01 41.62 19.21 62.43 6.4 16.01-11.21 24.01-30.42 20.81-48.03h1.6l3.2 3.2c16.01 16.01 40.02 17.61 57.63 8 22.41-12.81 30.42-43.22 16.01-65.63-1.6-3.2-3.2-4.8-4.8-8L766.8 623.6 529.89 338.69c-3.2-3.2-6.4-3.2-9.61-1.6l-113.66 62.43c-36.82 19.21-80.04 24.01-118.46 9.61-22.41-8-38.42-24.01-46.42-44.82-6.4-22.41-3.2-44.82 8-64.03 3.2-4.8 1.6-11.21-4.8-14.41-1.6-1.6-3.2-1.6-4.8-1.6H86.46c-12.81-1.6-22.41 8-22.41 19.21v300.96c4.8 11.2 14.4 20.8 27.21 20.8z m203.31-308.96l155.28-116.86c43.22-32.02 99.25-40.02 148.88-20.81l248.13 92.85c16.01 6.4 33.62 9.61 49.63 9.61h41.62c11.21 0 22.41 9.61 22.41 20.81v302.56c0 11.21-9.61 22.41-22.41 22.41h-54.43c-8 0-16.01 3.2-20.81 8l-11.21 9.61c-3.2 3.2-8 1.6-9.61-1.6L552.3 293.87c-8-9.61-20.81-11.21-30.42-4.8L389.02 362.7c-27.21 14.41-57.63 16.01-86.45 4.8-14.41-6.4-22.41-24.01-16.01-38.42 1.6-6.4 4.81-9.6 8.01-12.8z"
    ></path>
</svg>