<svg viewBox="0 0 1024 1024" xmlns="http://www.w3.org/2000/svg">
    <path fill="currentColor"
        d="M514.73,740.18c-138.1,0-256.61-43.1-307.37-104.57-17,20.59-26.37,43.22-26.37,66.95,0,94.72,149.42,171.52,333.74,171.52s333.75-76.8,333.75-171.52c0-23.73-9.38-46.38-26.38-66.95C771.34,697.08,652.83,740.18,514.73,740.18Zm0-194.95c-136.32,0-253.55-42-305.36-102.2C191.11,464.23,181,487.69,181,512.34c0,94.72,149.42,171.52,333.74,171.52s333.75-76.8,333.75-171.52c0-24.65-10.13-48.14-28.39-69.28C768.28,503.24,651.05,545.23,514.73,545.23ZM181,322.12C181,383.4,244.6,440,347.86,470.66s230.48,30.61,333.74,0S848.48,383.4,848.48,322.12c0-94.72-149.43-171.52-333.75-171.52S181,227.4,181,322.12Z" />
</svg>