<svg viewBox="0 0 1024 1024" xmlns="http://www.w3.org/2000/svg">
    <path
        fill="currentColor"
        d="M519.07 253.21a10 10 0 0 0-14.14 0L321.5 436.64a10 10 0 0 0 7.05 17.08l93.41-0.05v190.05a10 10 0 0 0 10 10H592a10 10 0 0 0 10-10v-190l93.47 0.05a10 10 0 0 0 7.07-17.08z m-56.57-42.42a70 70 0 0 1 99 0l183.43 183.43a70 70 0 0 1-49.51 119.5h-33.46v130a70 70 0 0 1-64.26 69.76l-5.74 0.24H432a70 70 0 0 1-70-70v-130h-33.39a70 70 0 0 1-69.77-64.26l-0.23-5.74a70 70 0 0 1 20.5-49.5zM738.33 735a30 30 0 0 1-10.92 41 430.73 430.73 0 0 1-430.28 0.32 30 30 0 1 1 30-52 370.74 370.74 0 0 0 370.19-0.27A30 30 0 0 1 738.33 735z"
    ></path>
</svg>