<svg viewBox="0 0 1024 1024" xmlns="http://www.w3.org/2000/svg">
    <path
        fill="currentColor"
        d="M572.928 743.5776l1.792 0.1024c9.3696 1.024 15.9744 9.8304 13.568 18.7904l-0.9216 3.2768C577.4848 796.672 547.4816 819.2 512 819.2l-3.6352-0.0512c-35.1232-1.536-64.2048-25.088-72.704-56.6784l-0.3072-1.6384c-1.3312-8.96 5.9904-17.2544 15.7184-17.2544h121.856zM512 153.6c12.7488 0 23.04 10.1376 23.04 22.6816v23.808c118.0672 11.7248 207.36 113.9712 207.36 232.192v160l0.1024 2.304a30.5152 30.5152 0 0 0 30.6176 27.9552h5.4784l2.6112 0.1024c19.0464 1.1776 35.84 15.0016 37.7856 33.792l0.1536 2.4576a37.4784 37.4784 0 0 1-10.6496 27.648 38.656 38.656 0 0 1-27.648 11.6224H245.3504l-2.6112-0.0512c-19.0464-1.1776-35.84-15.0016-37.7856-33.8432L204.8 661.8624a37.4784 37.4784 0 0 1 10.6496-27.6992 38.7072 38.7072 0 0 1 27.6992-11.6224h7.68l2.304-0.0512a30.464 30.464 0 0 0 28.416-30.208v-166.4c0-117.6576 90.9312-214.3744 207.36-225.792v-23.808c0-12.544 10.2912-22.6816 23.04-22.6816z"
    ></path>
</svg>