<svg viewBox="0 0 1024 1024" xmlns="http://www.w3.org/2000/svg">
    <path
        fill="currentColor"
        d="M691.22 356.84c24.73 0 44.77 20.05 44.77 44.77 0 16-8.53 30.78-22.39 38.77-13.85 8-30.92 8-44.77 0a44.784 44.784 0 0 1-22.39-38.77c0.01-24.73 20.05-44.77 44.78-44.77z m-358.18 0c24.73 0 44.77 20.05 44.77 44.77 0 16-8.53 30.78-22.39 38.77-13.85 8-30.92 8-44.77 0a44.784 44.784 0 0 1-22.39-38.77c0.01-24.73 20.05-44.77 44.78-44.77z m371.51 271.48c9.71 7.65 11.38 21.73 3.73 31.44-51.22 65.01-117.43 98.08-196.89 98.08-79.48 0-145.57-33.08-196.5-98.13-7.62-9.73-5.91-23.81 3.83-31.43 9.73-7.62 23.81-5.91 31.43 3.83 42.55 54.35 95.71 80.96 161.24 80.96 65.55 0 118.88-26.63 161.72-81.01 7.66-9.72 21.73-11.39 31.44-3.74zM511.61 131.03c-210.18 0-380.56 170.38-380.56 380.56s170.38 380.56 380.56 380.56 380.56-170.38 380.56-380.56-170.38-380.56-380.56-380.56z m0-67.16c247.27 0 447.72 200.45 447.72 447.72S758.88 959.31 511.61 959.31 63.89 758.86 63.89 511.59 264.34 63.87 511.61 63.87z"
    ></path>
</svg>