<svg viewBox="0 0 1024 1024" xmlns="http://www.w3.org/2000/svg">
    <defs>
        <linearGradient id="linear_3" x1="724.6" y1="632.96" x2="725.09" y2="737.12"
            gradientUnits="userSpaceOnUse">
            <stop offset="0" stop-color="#a7f859" />
            <stop offset="0.19" stop-color="#94ef5c" />
            <stop offset="0.45" stop-color="#81e55f" />
            <stop offset="0.72" stop-color="#76e061" />
            <stop offset="1" stop-color="#72de62" />
        </linearGradient>
    </defs>
    <circle fill="#e8fcf3" cx="511.51" cy="513.6" r="512" />
    <path fill="#3fdd93"
        d="M654.76,492.84,533.83,620.65l-1.67,1.06a49,49,0,0,1-56.31-3.08l-53.55-42.3a16,16,0,0,1-2-22.25,15.39,15.39,0,0,1,21.14-2.67L495,593.71a18.15,18.15,0,0,0,19.44,2.08L632.35,471.08a15.4,15.4,0,0,1,22-.5,16,16,0,0,1,.49,22.35Zm45-138.62h-62.3V324.35a23.72,23.72,0,1,0-47.43,0v29.89H444.49V324.35a23.72,23.72,0,1,0-47.43,0v29.89H344.63c-37.38.1-67.66,30.85-67.79,68.82V679.45c.11,38,30.4,68.72,67.78,68.82H699.76c37.37-.11,67.64-30.86,67.75-68.82V423.06C767.4,385.09,737.12,354.33,699.74,354.22Z" />
    <circle fill="url(#linear_3)" cx="724.84" cy="684.27" r="64" />
</svg>