<svg viewBox="0 0 1024 1024"
    xmlns="http://www.w3.org/2000/svg">
    <path
        fill="currentColor"
        d="M916.84 121.89c24.03 0 43.52 19.48 43.52 43.52 0 22.03-16.37 40.24-37.61 43.12l-5.9 0.4H104.53c-24.03 0-43.52-19.48-43.52-43.52 0-22.03 16.37-40.24 37.61-43.12l5.9-0.4h812.32zM510.68 470.02c24.03 0 43.52 19.48 43.52 43.52 0 22.03-16.37 40.24-37.61 43.12l-5.9 0.4H104.53c-24.03 0-43.52-19.48-43.52-43.52 0-22.03 16.37-40.24 37.61-43.12l5.9-0.4h406.16z m0 348.13c24.03 0 43.52 19.48 43.52 43.52 0 22.03-16.37 40.24-37.61 43.12l-5.9 0.4H104.53c-24.03 0-43.52-19.48-43.52-43.52 0-22.03 16.37-40.24 37.61-43.12l5.9-0.4h406.16zM713.76 934.2l-2.24-0.06c-1.01-0.05-2.01-0.14-3.01-0.26l5.25 0.32c-3.37 0-6.65-0.38-9.81-1.11-0.37-0.1-0.78-0.19-1.18-0.3a43.15 43.15 0 0 1-10.98-4.53c-0.95-0.55-1.79-1.08-2.61-1.65a45.36 45.36 0 0 1-2.26-1.67c-0.48-0.36-0.91-0.72-1.34-1.08-1.12-0.96-2.21-1.99-3.24-3.07-0.44-0.44-0.89-0.95-1.34-1.46-0.82-0.94-1.59-1.9-2.32-2.89-0.24-0.33-0.49-0.68-0.73-1.03l-0.96-1.45c-0.57-0.9-1.11-1.83-1.62-2.78l2.58 4.22c-1.45-2.1-2.69-4.28-3.73-6.52-0.59-1.28-1.14-2.63-1.62-4.02a43.385 43.385 0 0 1-1.51-5.58 36.045 36.045 0 0 1-0.45-2.69l-0.28-2.57c-0.07-0.95-0.11-1.9-0.12-2.85V310.46c0-24.03 19.48-43.52 43.52-43.52 22.03 0 40.24 16.37 43.12 37.61l0.4 5.9V807.7l120-82.81c19.78-13.65 46.88-8.69 60.53 11.09 12.41 17.98 9.44 42.01-6.06 56.49l-5.02 4.04-188.24 129.98-1.45 0.96c-0.9 0.57-1.83 1.11-2.78 1.62l4.22-2.58c-2.1 1.45-4.28 2.69-6.52 3.73a43.806 43.806 0 0 1-5.67 2.15 44.065 44.065 0 0 1-5.78 1.32c-1.11 0.17-2.28 0.31-3.45 0.39-0.7 0.06-1.38 0.09-2.06 0.11l-1.24 0.01z"
    ></path>
</svg>