<svg viewBox="0 0 1024 1024" xmlns="http://www.w3.org/2000/svg">
    <path
        fill="currentColor"
        d="M856.63 337.72l-267.76 1.77c12.57-46.25 18.94-87.34 18.94-123.53 0-82.09-68.82-162.48-137.54-152.05-60.6 9.2-67.25 63.94-67.25 132.52v61.93c0 79.49-63.83 147.2-137.83 154.66l-9.73-0.1v545.9h527.45c49.34 0 91.72-36.67 100.91-87.34l73.71-406.46c5.69-31.41-2.31-63.83-21.82-88.44-19.5-24.62-48.5-38.86-79.08-38.86zM63.5 481.98v406.46c0 38.89 30.14 70.39 67.35 70.39h60.63V412.25l-60.63-0.67c-37.2 0.01-67.35 31.52-67.35 70.4z"
    ></path>
</svg>