<svg viewBox="0 0 1024 1024" xmlns="http://www.w3.org/2000/svg">
    <path
        fill="currentColor"
        d="M709.75 161.87c102.54-76.89 162.19-65.64 193.89-41.26 18.64 13.13 22.37 39.38 13.05 73.14-11.19 43.13-48.47 90.02-104.4 101.27-9.32 28.13-37.29 101.27-104.4 136.9-52.2 28.13-115.59 26.26-186.43-3.75h-1.86c-44.74 67.51-72.71 118.15-72.71 120.02l-7.46 15-29.83-16.88 7.46-15c5.59-11.24 128.63-245.66 292.69-369.44zM328.6 358.4c30.65 0 52.28 16.23 55.89 43.27 3.61 21.63-3.61 36.06-10.82 45.07-14.42 18.03-36.06 19.83-37.86 19.83-37.86 5.41-73.92 27.04-97.36 59.49-23.44 32.45-32.45 72.11-25.24 111.77 12.62 70.31 73.92 122.59 146.04 122.59l5.41-0.47c3.61-0.53 7.21-1.34 10.82-1.34 41.47-3.61 75.72-23.44 100.96-55.89 23.44-32.45 34.26-72.11 28.85-111.77 0-1.8-3.61-25.24 10.82-43.27 7.21-10.82 19.83-18.03 34.26-19.83h9.01c37.86 0 50.48 32.45 52.28 50.48 10.82 72.11-10.82 144.23-57.69 200.11-46.88 55.89-115.39 90.14-189.31 91.94h-7.21c-113.58 0-218.15-81.13-247-192.9-18.03-72.11-5.41-146.03 34.26-207.32 39.66-61.3 104.57-100.96 176.69-111.77h7.2z"
    ></path>
</svg>