<svg viewBox="0 0 1024 1024" xmlns="http://www.w3.org/2000/svg">
    <path d="M512 512m-511.16 0a511.16 511.16 0 1 0 1022.32 0 511.16 511.16 0 1 0-1022.32 0Z"
        fill="#E4EFFE"></path>
    <path
        d="M620.12 547.34a21.3 21.3 0 0 0 36-11.18l24.64-133a21.3 21.3 0 0 0-24.82-24.82l-133 24.63a21.31 21.31 0 0 0-11.18 36l39.19 39.19-133.73 133.66-12.57-81.22-0.7-3.31a31.95 31.95 0 0 0-53.47-14.4L220.16 643.2a318.33 318.33 0 0 1-28.48-132c0-176.44 143-319.48 319.48-319.48s319.47 143 319.47 319.48-143 319.47-319.47 319.47c-113.49 0-213.15-59.17-269.83-148.35l124.44-124.48 12.54 81.25 0.61 3a32 32 0 0 0 53.55 14.7L581 508.24z"
        fill="#79AFF9"></path>
</svg>