<svg viewBox="0 0 1024 1024" xmlns="http://www.w3.org/2000/svg">
    <path
        fill="currentColor"
        d="M512.12 257.5a150 150 0 0 0-137.52 90h275a150 150 0 0 0-137.48-90z m120 210a60 60 0 1 0 60 60 60 60 0 0 0-60-60z m-240 0a60 60 0 1 0 60 60 60 60 0 0 0-60-60z m120-270c95.14 0 175.5 63.26 201.31 150h12.21a30 30 0 0 1 29.77 26.28l52.5 420a30 30 0 0 1-26 33.49 30.83 30.83 0 0 1-3.72 0.23h-532a30 30 0 0 1-30-30 28.91 28.91 0 0 1 0.23-3.72l52.5-420a30 30 0 0 1 29.77-26.28h12.21c25.73-86.74 106.1-150 201.22-150z"
    ></path>
</svg>