<svg xmlns="http://www.w3.org/2000/svg" viewBox="0 0 1024 1024">
    <path
        fill="currentColor"
        d="M512,220.89a21.35,21.35,0,0,1,21,17.5l.34,3.83v35.07l248.9,0a21.34,21.34,0,0,1,3.84,42.33l-3.84.34H516.32a21.92,21.92,0,0,1-8.64,0H241.78a21.33,21.33,0,0,1-3.84-42.32l3.84-.35,248.87,0,0-35.07A21.33,21.33,0,0,1,512,220.89ZM739.56,348.44a21.35,21.35,0,0,1,21,17.5l.34,3.84V768a49.79,49.79,0,0,1-44.35,49.49l-5.43.29H312.89a49.8,49.8,0,0,1-49.49-44.36l-.29-5.42V369.78a21.33,21.33,0,0,1,42.32-3.84l.35,3.84V768a7.12,7.12,0,0,0,4.86,6.75l2.25.36,64.14,0,0-364.89a21.33,21.33,0,0,1,42.32-3.84l.35,3.84,0,364.89h71.12V410.2a21.33,21.33,0,0,1,42.32-3.84l.34,3.84V775.09h71.08l0-364.89a21.33,21.33,0,0,1,42.32-3.84l.34,3.84,0,364.89,63.87,0a7.12,7.12,0,0,0,6.75-4.86l.36-2.25V369.78A21.34,21.34,0,0,1,739.56,348.44Z" />
</svg>