<svg viewBox="0 0 1024 1024" xmlns="http://www.w3.org/2000/svg">
    <path
        fill="currentColor"
        d="M746 274.14H596a15 15 0 0 0-14.76 12.31l-0.24 2.69v150a15 15 0 0 0 12.3 14.76l2.7 0.24h150a15 15 0 0 0 14.75-12.3l0.25-2.7v-150a15 15 0 0 0-12.31-14.75z m-330 0H266a15 15 0 0 0-14.76 12.31l-0.24 2.69v150a15 15 0 0 0 12.3 14.76l2.7 0.24h150a15 15 0 0 0 14.75-12.3l0.25-2.7v-150a15 15 0 0 0-12.31-14.75z m330-45a60 60 0 0 1 60 60v150a60 60 0 0 1-60 60H596a60 60 0 0 1-60-60v-150a60 60 0 0 1 60-60z m-330 0a60 60 0 0 1 60 60v150a60 60 0 0 1-60 60H266a60 60 0 0 1-60-60v-150a60 60 0 0 1 60-60z m330 375H596a15 15 0 0 0-14.76 12.31l-0.24 2.69v150a15 15 0 0 0 12.3 14.76l2.7 0.24h150a15 15 0 0 0 14.75-12.3l0.25-2.7v-150a15 15 0 0 0-12.31-14.76z m-330 0H266a15 15 0 0 0-14.76 12.31l-0.24 2.69v150a15 15 0 0 0 12.3 14.76l2.7 0.24h150a15 15 0 0 0 14.75-12.3l0.25-2.7v-150a15 15 0 0 0-12.31-14.76z m330-45a60 60 0 0 1 60 60v150a60 60 0 0 1-60 60H596a60 60 0 0 1-60-60v-150a60 60 0 0 1 60-60z m-330 0a60 60 0 0 1 60 60v150a60 60 0 0 1-60 60H266a60 60 0 0 1-60-60v-150a60 60 0 0 1 60-60z"
    ></path>
</svg>