<svg xmlns="http://www.w3.org/2000/svg" viewBox="0 0 1024 1024">
    <path
        fill="currentColor"
        d="M663.82,705.6c-.18,19.57-8.7,39-42.18,39-75.42-.06-286.94.27-323.44,0-40.91-.29-42.2-20.27-42.2-39,0-90.35,62.16-171.29,145.61-194.57-36.73-19.48-55.13-55.68-55.13-97.58,0-61.16,50.85-110.9,113.36-110.9S573.2,352.29,573.2,413.45c0,41.92-20.16,78.1-56.89,97.58C599.83,534.31,664.71,616.07,663.82,705.6Zm127.45-41.84c0,20.48-14.9,37-39.52,36.58-12.35-.05-11.4.24-22.68,0-19.76-.43-18.46-12.3-24.89-36.58-15.81-59.72-82.69-137.9-97.95-146.94-40.21-23.84,10.84-8,10.84-84.64,0-19.68-4.53-44.4-12.62-61-6.34-13-11.56-25.06,12.62-24.28,48.08,1.5,87.09,38.2,87.09,85.3,0,29.54-15.32,55.56-38.61,70.89,4.55,1,9.17,2.12,14.3,3.47C743.79,525,791.27,600.48,791.27,663.76Z" />
</svg>