<svg xmlns="http://www.w3.org/2000/svg" viewBox="0 0 1024 1024">
    <path
        fill="currentColor"
        d="M512.4,178.9,379.13,255.78l-.15-.08L249.85,330.28l.07,0-.07.05,129.6,74.77.1-.07,133,76.67,133.28-76.89.16.1,129.12-74.59-.08,0,.08,0-129.6-74.77-.11.05L512.41,178.9ZM801.81,379.74,540.4,530.52V830.65L678.34,751.1h0l123.47-71.22V379.73Zm-579-.19V680L484.23,830.76V530.33Zm289.5-265.44,190,109.09h-.18l-.38.19L857.89,313.5V712.27L512.32,911.66,166.75,712.27V313.5l156.15-90-.67-.29h.19L512.31,114.11Z" />
</svg>