<svg viewBox="0 0 1024 1024" xmlns="http://www.w3.org/2000/svg">
    <path
        fill="currentColor"
        d="M663.5 113.96a171.463 171.463 0 0 1 125.99-50.43c47.15 1.23 91.7 21.83 123.18 56.95 64.31 71.73 62.51 180.9-4.13 250.47l-4.51 4.55-405.38 394.81c-18.09 17.77-46.98 18.07-65.43 0.69-18.46-17.38-19.89-46.24-3.24-65.36l2.81-2.97 405.38-394.81c34.53-33.62 36.39-88.49 4.22-124.37l-3.02-3.16c-28.86-28.75-75.12-30.06-105.56-3l-3.4 3.23-572.93 575.43v84.82c0 11.96 8.96 22.04 20.84 23.44l2.76 0.17h706c25.46-0.1 46.41 20 47.35 45.44 0.95 25.44-18.45 47.05-43.84 48.84l-3.54 0.12H181.08c-63.18 0-115.14-49.76-117.88-112.88l-0.12-5.12V756a94.45 94.45 0 0 1 23.84-62.73l3.66-3.89L663.5 113.96z"
    ></path>
</svg>