<svg xmlns="http://www.w3.org/2000/svg" viewBox="0 0 1024 1024">
    <path fill="currentColor"
        d="M409.16,344C342.07,344,287.68,398.16,287.68,465s54.39,121.08,121.48,121.08S530.64,531.91,530.64,465,476.25,344,409.16,344Zm216-53.82c96.91,0,175.47,78.31,175.47,174.91A174.39,174.39,0,0,1,733,603a330.57,330.57,0,0,1,129.41,80.11,26.91,26.91,0,1,1-38.05,38A276.15,276.15,0,0,0,627.25,639.9l-2.13,0a27,27,0,0,1-.34-53.93h5.46C695,583.34,746.6,530.2,746.6,465,746.6,398.16,692.22,344,625.12,344a26.91,26.91,0,1,1,0-53.82Zm-216,0c96.91,0,175.47,78.31,175.47,174.91a174.77,174.77,0,0,1-91.18,153.43A329.83,329.83,0,0,1,646,705.35a26.91,26.91,0,1,1-38.05,38c-108.06-108.06-283-108.34-390.69-.63a27,27,0,0,1-38.17-38.18A327.22,327.22,0,0,1,326.63,619.4,174.74,174.74,0,0,1,233.69,465C233.69,368.44,312.25,290.13,409.16,290.13Z" />
</svg>