<svg viewBox="0 0 1024 1024" xmlns="http://www.w3.org/2000/svg">
    <path
        fill="currentColor"
        d="M773.27 374.27v74.78c0 6.74-5.47 12.21-12.21 12.21H580.03c-6.74 0-12.21-5.47-12.21-12.21v-186.9c0-6.74 5.47-12.21 12.21-12.21h68.9c13.48 0 24.41-10.93 24.41-24.41 0-6.48-2.57-12.68-7.15-17.26L528.96 71.02c-9.53-9.53-24.99-9.53-34.53 0L357.19 208.26c-9.53 9.53-9.53 24.99 0 34.53a24.41 24.41 0 0 0 17.26 7.15h73.62c6.74 0 12.21 5.46 12.21 12.21v186.9c0 6.74-5.47 12.21-12.21 12.21H262.33c-6.74 0-12.21-5.47-12.21-12.21v-74.78c0-13.48-10.93-24.41-24.41-24.41a24.41 24.41 0 0 0-17.26 7.15L71.21 494.24c-9.53 9.53-9.53 24.99 0 34.53l137.24 137.24c9.53 9.53 24.99 9.53 34.53 0a24.41 24.41 0 0 0 7.15-17.26v-74.31c0-6.74 5.47-12.21 12.21-12.21h185.74c6.74 0 12.21 5.47 12.21 12.21v186.44c0 6.74-5.47 12.21-12.21 12.21h-73.62c-13.48 0-24.41 10.93-24.41 24.41 0 6.47 2.57 12.68 7.15 17.26L494.44 952c9.53 9.53 24.99 9.53 34.53 0l48.13-48.13 89.11-89.11c9.53-9.53 9.53-24.99 0-34.53a24.41 24.41 0 0 0-17.26-7.15h-68.9c-6.74 0-12.21-5.47-12.21-12.21V574.43c0-6.74 5.47-12.21 12.21-12.21h181.03c6.74 0 12.21 5.47 12.21 12.21v74.31c0 13.48 10.93 24.41 24.41 24.41 6.47 0 12.68-2.57 17.26-7.15L952.2 528.76c9.53-9.53 9.53-24.99 0-34.53L814.94 357c-9.53-9.53-24.99-9.53-34.53 0a24.449 24.449 0 0 0-7.14 17.27z"
    ></path>
</svg>