<svg viewBox="0 0 1024 1024" xmlns="http://www.w3.org/2000/svg">
    <path
        fill="currentColor"
        d="M511.76 992c-265.1 0-480-214.9-480-480s214.9-480 480-480 480 214.9 480 480-214.9 480-480 480z m0-24c251.84 0 456-204.16 456-456S763.6 56 511.76 56s-456 204.16-456 456 204.16 456 456 456z m-97.23-534.65c28-28.03 52.4-45.28 2.78-107.05-49.62-61.77-82.73-14.34-109.89 12.83-31.29 31.32-1.65 148.06 113.75 263.48 115.39 115.36 232.16 145.06 263.48 113.72 27.16-27.14 74.57-60.21 12.83-109.86-61.74-49.65-79.03-25.24-107.05 2.78-19.6 19.52-69.09-21.33-111.86-64.07-42.77-42.75-83.64-92.26-64.04-111.83z"
    ></path>
</svg>