<svg viewBox="0 0 1024 1024"
    xmlns="http://www.w3.org/2000/svg">
    <path
        fill="currentColor"
        d="M938.18 372.48c-18.46-23.48-47.24-36.91-78.89-36.91H663.82c27.45-81.78 6.37-176.49 5.15-181.71-1.12-4.67-3.1-9.07-5.84-12.97-15.95-46.56-58.7-77.75-106.75-77.89-60.22 0.16-109.85 48.59-113.09 110.36h-0.64v25.9c0 75.16-59.52 136.3-132.69 136.3H139.59c-41.93 0-76.05 35.05-76.05 78.16v466.76c0 43.11 33.93 78.16 75.63 78.16h644.86c38.33 0 74.69-30.38 82.8-69.12l89.92-431.06c6.53-31.34-0.22-62.65-18.57-85.98z m-798.59 40.97h113.5v467.08H139.36l0.23-467.08z m743.01 28.7l-89.93 431.02c-0.68 3.27-6.03 7.59-8.64 7.59l-455.12-0.2V413.45h3.41v-1.28c105.81-11.85 186-103.57 186.14-212.9V179.8c0.91-20.83 17.62-37.24 37.91-37.24 20.3 0 37 16.41 37.91 37.24 7.5 39.92 16.61 129.6-25.85 170.26-11.41 10.91-15.16 27.88-9.45 42.77 5.71 14.9 19.71 24.68 35.3 24.67 5.5 0 10.85-1.63 15.93-4.05h249.07c8.79 0 15.84 2.84 19.94 8.02 3.91 4.99 5.12 12.34 3.38 20.68z"
    ></path>
</svg>