<svg viewBox="0 0 1024 1024" xmlns="http://www.w3.org/2000/svg">
    <path
        fill="currentColor"
        d="M432.18 395.24a90 90 0 1 0 90 90 90 90 0 0 0-90-90z m160-40a130 130 0 0 1 79.92 232.54 244.41 244.41 0 0 1 96 59.34 20 20 0 0 1-28.29 28.28 204.31 204.31 0 0 0-147.48-60 20 20 0 0 1-18.92-27.17c0.07-0.15 0.13-0.3 0.19-0.46s0.19-0.47 0.3-0.7a20 20 0 0 1 18.25-11.8 90 90 0 1 0 0-180 20 20 0 0 1 0-40z m-160 0a130 130 0 0 1 62.48 244 243.79 243.79 0 0 1 113.26 64.36 20 20 0 0 1-28.29 28.28c-80.05-80-209.85-80-289.91 0a20 20 0 0 1-28.28-28.28 243.88 243.88 0 0 1 109.88-63.47 130 130 0 0 1 60.86-244.89z"
    ></path>
</svg>