<svg viewBox="0 0 1024 1024" xmlns="http://www.w3.org/2000/svg">
    <path
        fill="currentColor"
        d="M797.53 394.18l3.59 3.1L869 465.15l67.89-67.87A32 32 0 0 1 985.24 439l-3.1 3.58-67.92 67.85 67.92 67.92a32 32 0 0 1-41.67 48.35l-3.59-3.1L869 555.65l-67.87 67.9a32 32 0 0 1-48.36-41.66l3.1-3.59 67.86-67.92-67.86-67.85a32 32 0 0 1 41.67-48.35zM640 213.34L378.37 409.6a85.33 85.33 0 0 1-51.2 17.07H256v170.66h71.32a85.3 85.3 0 0 1 51.22 17.09L640 810.63z m-51.21-68.26a85.34 85.34 0 0 1 136.54 68.26v597.29a85.32 85.32 0 0 1-136.55 68.25L327.32 682.67H256a85.33 85.33 0 0 1-85.33-85.34V426.67A85.33 85.33 0 0 1 256 341.33h71.17z"
    ></path>
</svg>