<svg viewBox="0 0 1120 1024" xmlns="http://www.w3.org/2000/svg">
  <path
    fill="currentColor"
    d="M823.350127 0.001245a296.406046 296.406046 0 0 0-296.267667 295.160643c0 124.540355 81.227987 264.440688 149.310048 359.783249a1614.181384 1614.181384 0 0 0 135.195475 164.254891 17.020515 17.020515 0 0 0 12.315657 5.25837 17.43565 17.43565 0 0 0 12.454036-5.25837 1621.930562 1621.930562 0 0 0 135.333853-164.393269c68.082061-95.480939 149.17167-235.242894 149.17167-359.783249A296.682802 296.682802 0 0 0 823.350127 0.001245z m0 471.592813a179.891624 179.891624 0 1 1 181.275407-179.891625 180.860272 180.860272 0 0 1-181.275407 179.891625zM534.554881 738.248797L87.178249 689.53968 151.108965 470.487033a29.889685 29.889685 0 0 1 28.644281-21.586995h332.107615a834.282003 834.282003 0 0 0 57.288563 122.879817zM474.498754 1023.999723H30.028063a30.443198 30.443198 0 0 1-24.077802-11.762144 29.612929 29.612929 0 0 1-4.704857-26.153475L62.270178 776.856307l454.157162 49.401007L474.498754 1023.999723z m549.77648-366.287023l40.12967 138.378173-134.365205-14.668086c23.939424-27.675635 51.061546-62.546934 78.183667-100.462554 5.119992-7.610799 10.655119-15.221599 16.051868-23.247533z m66.975036 231.091549l27.675634 95.204182a27.675635 27.675635 0 0 1 1.798917 10.239985A29.889685 29.889685 0 0 1 1090.696757 1023.999723h-524.453274l39.576157-188.055936 485.43063 52.860462z"
  ></path>
</svg>
