<svg viewBox="0 0 1024 1024" xmlns="http://www.w3.org/2000/svg">
  <path
    fill="currentColor"
    d="M865.247315 697.134176a57.662134 57.662134 0 0 1-55.614957-59.368115v-254.191063a55.956154 55.956154 0 1 1 111.571111 0v254.191063a57.662134 57.662134 0 0 1-55.956154 59.368115z m-151.832246 125.560149h-42.649507a63.121271 63.121271 0 0 1 2.388372 16.377411v125.56015a55.956154 55.956154 0 1 1-111.912307 0v-125.56015a63.121271 63.121271 0 0 1 2.388372-16.377411h-102.358817a63.121271 63.121271 0 0 1 2.388372 16.377411v125.56015a55.956154 55.956154 0 1 1-111.912307 0v-125.56015a63.121271 63.121271 0 0 1 2.388372-16.377411H310.121328a61.415291 61.415291 0 0 1-59.026918-62.780075V323.865687h521.347577v436.048563a61.415291 61.415291 0 0 1-59.026918 62.780075zM383.819676 86.052034L373.242599 68.651035l-10.577078-16.37741L341.170169 15.765646a10.577078 10.577078 0 0 1 2.729569-13.647842 9.212294 9.212294 0 0 1 12.96545 2.729568l24.907312 39.578743 10.577078 16.718607 10.577078 17.059803A286.263493 286.263493 0 0 1 511.768199 56.709173a289.334258 289.334258 0 0 1 110.888719 21.495352l10.577077-17.059803 10.235882-16.718607 24.907313-39.578743A9.212294 9.212294 0 0 1 682.366228 2.117804a10.577078 10.577078 0 0 1 2.729568 13.647842l-23.201332 37.190371-11.600666 15.695018-10.577077 16.718607a225.189399 225.189399 0 0 1 132.725266 198.23491H251.09441a225.189399 225.189399 0 0 1 132.725266-197.552518z m238.837242 119.077425a29.684057 29.684057 0 1 0-27.978077-29.684057 28.660469 28.660469 0 0 0 28.660469 29.684057zM399.514695 205.129459a29.684057 29.684057 0 1 0-27.978077-29.684057 29.001665 29.001665 0 0 0 28.660469 29.684057zM158.289082 697.134176A57.662134 57.662134 0 0 1 102.332928 637.766061v-254.191063a57.662134 57.662134 0 0 1 55.956154-59.709311 57.662134 57.662134 0 0 1 55.614957 59.709311v254.191063a57.662134 57.662134 0 0 1-55.614957 59.368115z"
  ></path>
</svg>
