<svg viewBox="0 0 1260 1024" xmlns="http://www.w3.org/2000/svg">
  <path
    fill="currentColor"
    d="M85.070769 505.698462A294.596923 294.596923 0 0 1 498.609231 86.646154l78.769231 83.495384-149.661539 157.538462a188.258462 188.258462 0 0 0-3.938461 253.636923A174.08 174.08 0 0 0 555.323077 630.153846a190.621538 190.621538 0 0 0 123.667692-53.563077l157.538462-157.538461 211.889231 214.252307-363.126154 368.64h-3.938462a78.769231 78.769231 0 0 1-107.913846 0z"
  ></path>
  <path
    fill="currentColor"
    d="M1175.236923 505.698462l-78.769231 78.76923-191.40923-194.56-25.993847-25.993846-41.747692-41.747692-201.649231 206.375384a124.455385 124.455385 0 0 1-157.538461 0 119.729231 119.729231 0 0 1 0-152.024615l168.566154-172.504615 114.215384-115.79077a288.295385 288.295385 0 0 1 412.750769 0 299.323077 299.323077 0 0 1 1.575385 417.476924z"
  ></path>
</svg>
