<svg viewBox="0 0 1024 1024" xmlns="http://www.w3.org/2000/svg">
  <path
    fill="currentColor"
    d="M959.705328 384.041306h-59.108912a74.467921 74.467921 0 0 1-69.813676-63.763157A325.797153 325.797153 0 0 0 498.469644 0.06609H332.313096A333.243945 333.243945 0 0 0 0 330.517488v363.031114A333.243945 333.243945 0 0 0 332.313096 1024h359.307718A333.243945 333.243945 0 0 0 1023.93391 693.548602v-232.712252a74.933345 74.933345 0 0 0-64.228582-74.467921zM316.488663 256.049568h192.685745a64.228582 64.228582 0 1 1 0 127.991738H316.488663a61.901459 61.901459 0 0 1-64.694006-63.763157A65.159431 65.159431 0 0 1 316.488663 256.049568z m385.836914 511.966955H316.488663a64.228582 64.228582 0 1 1 0-127.991739h385.836914a64.228582 64.228582 0 1 1 0 127.991739z"
  ></path>
</svg>
