<svg viewBox="0 0 1024 1024" xmlns="http://www.w3.org/2000/svg">
  <path
    fill="currentColor"
    d="M512 0a512 512 0 1 0 512 512A512 512 0 0 0 512 0z m0 947.2a435.2 435.2 0 1 1 435.2-435.2 435.2 435.2 0 0 1-435.2 435.2z"
  ></path>
  <path
    fill="currentColor"
    d="M748.672 417.536a38.4 38.4 0 0 0-28.416 46.208 253.184 253.184 0 0 1 5.888 48.256A214.144 214.144 0 1 1 512 297.856h2.048a181.376 181.376 0 0 1 65.152 10.752 38.4 38.4 0 0 0 25.6-72.32 259.584 259.584 0 0 0-91.648-15.232H512A290.944 290.944 0 1 0 802.944 512a313.088 313.088 0 0 0-8.064-66.048 38.4 38.4 0 0 0-46.208-28.416z"
  ></path>
</svg>
