<svg viewBox="0 0 1024 1024" xmlns="http://www.w3.org/2000/svg">
  <path
    fill="currentColor"
    d="M625.323808 895.845846H399.529124a21.108285 21.108285 0 0 0-23.02722 18.549704 21.74793 21.74793 0 0 0 20.46864 21.74793h228.353264a21.74793 21.74793 0 0 0 23.02722-19.828995 20.46864 20.46864 0 0 0-19.828995-21.108284z m45.414794-85.072785h-319.822498a21.108285 21.108285 0 1 0 0 42.21657h319.822498a21.108285 21.108285 0 1 0 0-42.21657zM512.106643 0.34285a368.435518 368.435518 0 0 0-383.786998 351.165103A336.453268 336.453268 0 0 0 261.365804 614.402047a63.9645 63.9645 0 0 1 27.504735 55.649115v29.423669A72.91953 72.91953 0 0 0 360.510779 767.916846h301.272794a70.36095 70.36095 0 0 0 72.279884-70.36095v-29.423669a70.36095 70.36095 0 0 1 28.14438-53.73018 340.291138 340.291138 0 0 0 133.685804-264.173384A365.876938 365.876938 0 0 0 515.304868 0.34285z m250.101194 392.102383a19.18935 19.18935 0 0 1-20.46864-18.549705 243.704744 243.704744 0 0 0-67.80237-155.433734 200.208884 200.208884 0 0 0-142.640834-63.9645 21.74793 21.74793 0 0 1-24.946155-19.828995 19.828995 19.828995 0 0 1 19.828995-21.108285 238.587584 238.587584 0 0 1 174.623084 74.19882A288.479894 288.479894 0 0 1 780.117897 371.336948a20.46864 20.46864 0 0 1-20.46864 21.108285z m-178.460954 588.473397H442.385339a21.108285 21.108285 0 0 0-22.387575 19.18935 19.828995 19.828995 0 0 0 22.387575 23.666865h138.802964a20.46864 20.46864 0 0 0 22.387575-18.549705 21.108285 21.108285 0 0 0-20.46864-21.74793z"
  ></path>
</svg>
