<svg viewBox="0 0 1672 1024" xmlns="http://www.w3.org/2000/svg">
  <path
    fill="currentColor"
    d="M1662.901825 398.080531a67.799087 67.799087 0 0 0-93.090909-24.22914l-49.520963 29.117476V67.799087A67.799087 67.799087 0 0 0 1452.490866 0h-1232.710668a67.799087 67.799087 0 0 0-67.799087 67.799087v335.16978l-49.520963-29.117476a68.011623 68.011623 0 0 0-68.861769 117.320049l118.382732 69.499378v395.530095a67.799087 67.799087 0 0 0 67.799087 67.799087h1232.710668a67.799087 67.799087 0 0 0 67.799087-67.799087V560.670818l118.382731-69.499378a68.224159 68.224159 0 0 0 24.229141-93.090909z"
  ></path>
  <path
    fill="#878787"
    d="M326.048359 0h1026.337899v141.124118a63.760897 63.760897 0 0 1-63.760896 63.760897H389.809255a63.760897 63.760897 0 0 1-63.760896-63.760897V0z"
  ></path>
  <path
    fill="#fff"
    d="M977.472186 505.411374a32.305521 32.305521 0 0 1-10.839352-1.912827 30.180158 30.180158 0 0 1-17.215443-38.681611 194.895807 194.895807 0 0 1 176.192611-125.608966 193.833126 193.833126 0 0 1 176.405148 125.183894 29.967621 29.967621 0 1 1-55.897053 21.253632 133.260274 133.260274 0 0 0-120.720631-86.714819 135.598174 135.598174 0 0 0-120.295558 86.927355 29.967621 29.967621 0 0 1-27.629722 19.553342zM397.248027 505.411374a29.967621 29.967621 0 0 1-28.054795-40.594438 195.32088 195.32088 0 0 1 177.255293-125.608966A193.833126 193.833126 0 0 1 722.641136 464.391864a29.797592 29.797592 0 1 1-55.684517 21.253632 133.685347 133.685347 0 0 0-120.933167-86.714819 135.598174 135.598174 0 0 0-120.295558 86.927355 29.967621 29.967621 0 0 1-28.479867 19.553342z"
  ></path>
</svg>
