<svg viewBox="0 0 1199 1024" xmlns="http://www.w3.org/2000/svg">
  <path
    fill="currentColor"
    d="M660.749474 998.4a85.962105 85.962105 0 0 1-121.936842 0L25.330526 483.301053a87.309474 87.309474 0 0 1 0-123.014737L358.669474 25.6a86.096842 86.096842 0 0 1 122.071579 0l118.837894 118.972632 118.433685-118.972632a86.366316 86.366316 0 0 1 122.475789 0l333.338947 334.821053a87.174737 87.174737 0 0 1 0 122.88L660.749474 998.4z m138.913684-250.88l52.412631-52.547368-112.774736-113.178948 55.511579-55.646316 112.64 113.178948 36.917894-37.052632-160.067368-160.875789-10.778947 10.778947a169.498947 169.498947 0 0 1-240.101053 0l-58.88-59.149474a87.04 87.04 0 0 1 0-122.745263l69.52421-69.928421-124.227368-124.766316L75.048421 421.726316 599.578947 948.547368l42.576842-42.711579-112.774736-113.313684 55.511579-55.646316 112.774736 113.178948 46.618948-46.753684-112.774737-113.313685 55.376842-55.781052 112.774737 113.313684z m324.446316-325.658947L779.317895 75.587368l-255.056842 256 64.673684 64.943158a91.082105 91.082105 0 0 0 129.077895 0l4.985263-5.12 67.368421-67.368421 7.141052-7.275789 215.578948 216.522105 111.292631-111.562105z"
  ></path>
</svg>
