<svg viewBox="0 0 1603 1024" xmlns="http://www.w3.org/2000/svg">
  <path
    fill="currentColor"
    d="M801.811321 533.059623L1599.758491 24.344151c0-15.456604-19.320755-24.344151-79.60151-24.344151H83.46566C28.981132 0 3.864151 0 3.864151 24.344151zM1595.701132 942.659623A126.937358 126.937358 0 0 0 1603.622642 898.415094V132.733585v-7.341887L1101.283019 445.536604z"
  ></path>
  <path
    fill="currentColor"
    d="M997.723774 475.097358l-163.84 104.332076a63.565283 63.565283 0 0 1-64.144906 0l-163.84-104.332076L95.444528 988.643019A123.65283 123.65283 0 0 0 181.808302 1024h1240.006038a123.65283 123.65283 0 0 0 86.363773-35.356981zM502.146415 445.536604L0.193208 125.584906v772.830188a126.937358 126.937358 0 0 0 7.921509 43.858114z"
  ></path>
</svg>
