<svg viewBox="0 0 1024 1024" xmlns="http://www.w3.org/2000/svg">
  <path
    fill="currentColor"
    d="M554.422857 243.809524a151.649524 151.649524 0 0 0-56.07619 9.508571c-41.935238 16.091429-62.415238 52.175238-62.415238 109.958095v55.832381H377.904762V512h58.026667v268.190476h118.491428V512H633.904762l11.215238-92.891429h-90.697143v-41.691428a48.761905 48.761905 0 0 1 4.876191-27.550476c5.12-8.533333 15.36-12.190476 31.695238-12.190477h54.125714V243.809524h-90.697143z"
  ></path>
  <path
    class="border"
    d="M512 18.041905A493.958095 493.958095 0 1 1 18.041905 512 494.445714 494.445714 0 0 1 512 18.041905M512 0a512 512 0 1 0 512 512A512 512 0 0 0 512 0z"
  ></path>
</svg>
