<svg viewBox="0 0 1024 1024" xmlns="http://www.w3.org/2000/svg">
  <path
    fill="currentColor"
    d="M512 422.521905A89.478095 89.478095 0 1 0 601.478095 512 89.721905 89.721905 0 0 0 512 422.521905z"
  ></path>
  <path
    fill="currentColor"
    d="M780.190476 512c0-37.059048 0-73.142857-1.706666-110.689524a159.939048 159.939048 0 0 0-43.398096-112.39619 159.939048 159.939048 0 0 0-112.39619-43.398096C585.142857 243.809524 549.059048 243.809524 512 243.809524s-73.142857 0-110.689524 1.706666a159.939048 159.939048 0 0 0-112.39619 43.398096 159.939048 159.939048 0 0 0-43.398096 112.39619C243.809524 438.857143 243.809524 474.940952 243.809524 512s0 73.142857 1.706666 110.689524a159.939048 159.939048 0 0 0 43.398096 112.39619 159.939048 159.939048 0 0 0 112.39619 43.398096C438.857143 780.190476 474.940952 780.190476 512 780.190476s73.142857 0 110.689524-1.706666a159.939048 159.939048 0 0 0 112.39619-43.398096 159.939048 159.939048 0 0 0 43.398096-112.39619C780.190476 585.142857 780.190476 549.059048 780.190476 512z m-268.190476 137.508571A137.508571 137.508571 0 1 1 649.508571 512 137.508571 137.508571 0 0 1 512 649.508571z m143.11619-248.685714a32.182857 32.182857 0 1 1 32.182858-32.182857 32.182857 32.182857 0 0 1-32.182858 32.182857z"
  ></path>
  <path
    class="border"
    d="M512 18.041905A493.958095 493.958095 0 1 1 18.041905 512 494.445714 494.445714 0 0 1 512 18.041905M512 0a512 512 0 1 0 512 512A512 512 0 0 0 512 0z"
  ></path>
</svg>
