<svg viewBox="0 0 1024 1024" xmlns="http://www.w3.org/2000/svg">
  <path
    fill="currentColor"
    d="M806.358159 551.130255c0-190.510063 109.698693-195.629336 116.280614-198.554634a259.254577 259.254577 0 0 0-197.091984-103.116771c-83.736669-8.044571-163.816715 46.073451-206.233543 46.073451s-109.698693-46.073451-178.077545-44.976464a266.202161 266.202161 0 0 0-223.054008 127.981808C23.475155 535.406776 94.04798 767.968005 186.560545 894.487164c45.342126 62.162593 99.460148 132.004094 170.398636 129.444457s93.975214-42.051166 176.249233-42.051165S638.884821 1023.931621 711.285959 1023.931621s119.937237-63.25958 164.913701-125.787834a559.463333 559.463333 0 0 0 73.132462-141.876976s-143.339625-76.789085-146.264924-203.673907zM512 256.040771a263.276863 263.276863 0 0 1 269.493122-255.963616A262.9112 262.9112 0 0 1 512 256.040771z"
  ></path>
</svg>
