<svg viewBox="0 0 1024 1024" xmlns="http://www.w3.org/2000/svg">
  <path
    fill="currentColor"
    d="M415.232 593.92v177.7664H593.92V593.92z m293.5808-240.64H921.6V890.88H402.0224L203.6736 1024V890.88H102.4V353.28h312.2176v-60.1088h89.6A56.6272 56.6272 0 1 0 452.1984 215.04L440.32 242.688 275.3536 174.08 286.72 146.0224A235.52 235.52 0 1 1 708.8128 353.28z m-233.3696 3.072v118.5792h60.416v-58.9824l21.4016-6.3488a179.9168 179.9168 0 0 0 90.3168-63.7952 177.9712 177.9712 0 1 0-291.9424-203.0592l56.9344 23.7568a117.6576 117.6576 0 1 1 93.184 189.8496z m58.88 356.0448h-59.5968v-59.392h59.5968z m327.68 125.5424V415.5392H660.48a239.9232 239.9232 0 0 1-66.56 42.7008v75.776H414.6176V415.5392H161.9968v422.4h101.2736v81.92l120.5248-81.92z"
  ></path>
</svg>
