<svg viewBox="0 0 1024 1024" xmlns="http://www.w3.org/2000/svg">
  <path
    fill="currentColor"
    d="M512 0A512 512 0 1 1 0 512 512 512 0 0 1 512 0z m169.984 554.496H342.016c9.728 218.112 90.112 384 169.984 384s160.256-165.888 169.984-384z m-424.96 0H87.552a427.008 427.008 0 0 0 256 350.208A770.56 770.56 0 0 1 256 554.496z m679.424 0H768a768 768 0 0 1-87.04 349.696 425.472 425.472 0 0 0 256-349.696zM344.576 119.808h-5.12a425.984 425.984 0 0 0-251.904 347.648H256a760.32 760.32 0 0 1 88.576-347.648zM512 85.504h-3.072c-78.848 4.096-157.184 168.96-166.912 384h339.968c-9.728-218.112-90.112-384-169.984-384z m167.936 34.304l3.072 5.12A782.336 782.336 0 0 1 768 469.504h169.472a424.96 424.96 0 0 0-256-349.696z"
  ></path>
</svg>
