<svg viewBox="0 0 1024 1024" xmlns="http://www.w3.org/2000/svg">
  <path
    fill="currentColor"
    d="M257.706667 28.444444V227.555556a29.013333 29.013333 0 0 1-28.444445 28.444444H28.444444A29.013333 29.013333 0 0 0 0 284.444444v85.333334a29.013333 29.013333 0 0 0 28.444444 28.444444h341.333334a29.013333 29.013333 0 0 0 28.444444-28.444444v-341.333334a29.013333 29.013333 0 0 0-28.444444-28.444444H284.444444a29.013333 29.013333 0 0 0-26.737777 28.444444zM995.555556 257.706667H796.444444a29.013333 29.013333 0 0 1-28.444444-28.444445V28.444444A29.013333 29.013333 0 0 0 739.555556 0h-85.333334a29.013333 29.013333 0 0 0-28.444444 28.444444v341.333334a29.013333 29.013333 0 0 0 28.444444 28.444444h341.333334a29.013333 29.013333 0 0 0 28.444444-28.444444V284.444444a29.013333 29.013333 0 0 0-28.444444-26.737777zM28.444444 766.293333H227.555556a29.013333 29.013333 0 0 1 28.444444 28.444445v200.817778a29.013333 29.013333 0 0 0 28.444444 28.444444h85.333334a29.013333 29.013333 0 0 0 28.444444-28.444444v-341.333334a29.013333 29.013333 0 0 0-28.444444-28.444444h-341.333334a29.013333 29.013333 0 0 0-28.444444 28.444444V739.555556a29.013333 29.013333 0 0 0 28.444444 26.737777zM766.293333 995.555556V796.444444a29.013333 29.013333 0 0 1 28.444445-28.444444h200.817778a29.013333 29.013333 0 0 0 28.444444-28.444444v-85.333334a29.013333 29.013333 0 0 0-28.444444-28.444444h-341.333334a29.013333 29.013333 0 0 0-28.444444 28.444444v341.333334a29.013333 29.013333 0 0 0 28.444444 28.444444H739.555556a29.013333 29.013333 0 0 0 26.737777-28.444444z"
  ></path>
</svg>
