<svg viewBox="0 0 1024 1024" xmlns="http://www.w3.org/2000/svg">
  <path
    fill="currentColor"
    d="M533.057678 0h-21.56964C331.619178 14.257897 379.51109 205.094371 376.586393 268.706529a232.147817 232.147817 0 0 1-44.601628 129.052251 626.250726 626.250726 0 0 0-112.966418 193.395583 227.029598 227.029598 0 0 0-12.064375 106.020263 17.548181 17.548181 0 0 0-4.752632 5.849394c-11.333201 11.333201-19.376117 25.591098-28.150208 36.558711a114.063179 114.063179 0 0 1-33.999602 17.182594 63.612158 63.612158 0 0 0-36.558711 28.881382 61.784222 61.784222 0 0 0-5.483807 25.591098 133.073709 133.073709 0 0 0 2.193523 23.031988 101.998805 101.998805 0 0 1 1.827936 41.311344 80.063578 80.063578 0 0 0-4.387046 63.246571 61.053048 61.053048 0 0 0 39.848996 25.591098 479.650293 479.650293 0 0 1 118.084637 25.591098 163.41744 163.41744 0 0 0 109.676134 20.107291 75.676533 75.676533 0 0 0 51.547783-40.214583c24.859924 0 52.278957-11.698788 96.149411-14.257897 29.612556-2.55911 66.902442 11.333201 109.676134 8.408504a73.117423 73.117423 0 0 0 5.11822 14.257897A79.332404 79.332404 0 0 0 707.077144 1023.643918a148.793955 148.793955 0 0 0 96.880585-55.934828 336.705732 336.705732 0 0 1 100.902043-63.977745 47.526325 47.526325 0 0 0 27.784621-36.558711 86.644146 86.644146 0 0 0-30.343731-58.859526V804.29165a102.729979 102.729979 0 0 1-14.257897-39.483408 73.117423 73.117423 0 0 0-20.838466-44.601628c-2.55911-2.55911-5.483807-2.924697-8.042916-5.849394a17.913769 17.913769 0 0 0-8.042917-2.924697 229.22312 229.22312 0 0 0-7.677329-157.202459 532.294837 532.294837 0 0 0-92.49354-148.793955c-33.634014-42.773692-66.902442-83.353862-66.171267-143.675736 0-91.762366 9.505265-261.760373-151.718652-261.760373z m22.300813 146.234845a40.945757 40.945757 0 0 1 24.859924 8.408504 69.827139 69.827139 0 0 1 18.644943 22.666401 86.644146 86.644146 0 0 1 6.946155 31.074905v-2.55911 4.387045a77.504468 77.504468 0 0 1-6.580568 29.978144 36.558711 36.558711 0 0 1-9.139678 14.257897h-3.655871a61.418635 61.418635 0 0 1-12.064375-5.849394l-9.139677-2.924697c1.827936-2.55911 5.849394-5.483807 7.677329-8.408503a55.569241 55.569241 0 0 0 3.655871-17.182595 54.47248 54.47248 0 0 0-2.55911-17.182594 78.601229 78.601229 0 0 0-7.677329-14.257897 21.935227 21.935227 0 0 0-11.333201-5.483807 14.623485 14.623485 0 0 0-11.3332 5.483807 38.752234 38.752234 0 0 0-8.774091 14.257897 55.569241 55.569241 0 0 0-3.655871 17.182594 109.676134 109.676134 0 0 0 0 11.333201c-8.042916-2.55911-18.644943-5.483807-25.591098-8.408504a33.999602 33.999602 0 0 1 0-8.408503 76.04212 76.04212 0 0 1 6.214981-32.537253 47.526325 47.526325 0 0 1 18.279356-23.031989A41.676931 41.676931 0 0 1 555.358491 146.234845zM429.596524 146.234845a30.34373 30.34373 0 0 1 16.817008 5.849394 55.569241 55.569241 0 0 1 14.623484 19.741704 68.36479 68.36479 0 0 1 6.580568 28.515795 55.934828 55.934828 0 0 1 0 11.333201v3.655871h-3.655871a90.300017 90.300017 0 0 0-16.817007 8.408504 39.848995 39.848995 0 0 0 0-11.333201 67.999203 67.999203 0 0 0-3.655871-14.257897 24.494337 24.494337 0 0 0-6.946155-11.333201 10.236439 10.236439 0 0 0-7.67733-2.55911 8.408504 8.408504 0 0 0-7.677329 5.483807 20.107291 20.107291 0 0 0-5.11822 11.3332 31.440492 31.440492 0 0 0 0 14.257898 53.375719 53.375719 0 0 0 3.290284 14.257897 36.558711 36.558711 0 0 0 6.946155 11.333201 36.558711 36.558711 0 0 0-7.311742 5.849394 14.989072 14.989072 0 0 1-5.483807 2.559109 106.38585 106.38585 0 0 1-11.698787-16.817007 77.138881 77.138881 0 0 1-6.580568-28.515795 73.117423 73.117423 0 0 1 3.290284-28.515794 63.246571 63.246571 0 0 1 12.064374-23.031989 24.494337 24.494337 0 0 1 19.01053-6.214981z m58.128351 73.117423a85.547385 85.547385 0 0 1 51.547783 17.182595A192.298822 192.298822 0 0 0 584.605461 255.91098a47.891912 47.891912 0 0 1 20.472878 17.182594v-5.483807a24.859924 24.859924 0 0 1 0 19.741704 76.773294 76.773294 0 0 1-45.332802 36.558712c-11.333201 5.849394-21.204053 14.257897-32.90284 19.741704a81.160339 81.160339 0 0 1-43.13928 11.3332 47.891912 47.891912 0 0 1-19.01053-2.559109l-13.89231-8.774091a281.13649 281.13649 0 0 0-25.956685-19.741704 66.536855 66.536855 0 0 1-29.246969-30.343731 21.204053 21.204053 0 0 1 8.042916-25.591098c9.505265-5.849394 16.45142-11.698788 20.838466-14.623484a44.236041 44.236041 0 0 0 7.311742-5.483807 77.504468 77.504468 0 0 1 36.558711-25.591098 80.063578 80.063578 0 0 1 19.376117-2.924697z m119.181399 91.396779a999.515169 999.515169 0 0 0 73.117423 190.836473 449.67215 449.67215 0 0 1 46.795151 129.052251 77.138881 77.138881 0 0 1 21.569639 2.55911c27.784621-73.117423-23.031988-146.234845-46.063976-168.901247-9.505265-8.774091-9.870852-14.623485-5.483807-14.623484a249.695999 249.695999 0 0 1 70.558313 118.815812 151.353065 151.353065 0 0 1 0 71.289487 41.311344 41.311344 0 0 0 8.774091 2.924697c43.870454 22.666401 60.321874 39.848995 52.278957 65.440093v-1.827935h-8.408503c6.580568-20.107291-7.677329-36.558711-44.967215-52.278958s-70.192726-14.257897-75.310946 19.741704a23.031988 23.031988 0 0 0 0 5.849394l-9.139678 2.924697a77.138881 77.138881 0 0 0-32.90284 50.451022 441.99482 441.99482 0 0 0-8.77409 79.697991 329.028402 329.028402 0 0 1-13.526724 57.397176 195.223519 195.223519 0 0 1-227.395184 14.257898 115.525528 115.525528 0 0 0-17.182595-22.666401 55.569241 55.569241 0 0 0-11.698787-14.257898 62.515396 62.515396 0 0 0 19.741704-2.924697 27.053446 27.053446 0 0 0 13.526723-14.257897 57.762764 57.762764 0 0 0-14.623485-49.719847 278.942968 278.942968 0 0 0-76.042119-64.70892A107.117024 107.117024 0 0 1 272.394066 658.056805a134.170471 134.170471 0 0 1 0-70.192726 425.908987 425.908987 0 0 1 54.106892-117.719051c4.752632-2.924697 1.827936 5.849394-17.182594 41.676931s-48.623086 106.38585-5.11822 164.148614a345.114235 345.114235 0 0 1 27.419034-122.471683c24.128749-54.47248 73.117423-149.525129 78.235642-224.836075a137.095168 137.095168 0 0 1 12.064375 8.774091c9.139678 5.483807 16.085833 14.257897 25.225511 19.741704a50.451022 50.451022 0 0 0 36.558711 14.257897h4.752633a89.203256 89.203256 0 0 0 42.042518-11.698787c12.429962-5.483807 22.300814-14.257897 31.440491-16.817007a84.085036 84.085036 0 0 0 44.967215-31.074905zM699.765401 694.615516a61.784222 61.784222 0 0 0 36.558712 58.859525 93.955888 93.955888 0 0 0 76.042119-32.537253h8.774091a45.332802 45.332802 0 0 1 36.558711 11.698788 78.235642 78.235642 0 0 1 19.376117 35.096363 98.708521 98.708521 0 0 0 17.182595 45.698389 77.870055 77.870055 0 0 1 27.053446 48.623086c0 10.967613-7.677329 16.817007-21.204052 25.225511a352.425978 352.425978 0 0 0-104.192328 66.902442 132.342535 132.342535 0 0 1-86.644146 50.816608 63.246571 63.246571 0 0 1-66.902442-36.558711 109.676134 109.676134 0 0 1 2.55911-73.117423 505.606978 505.606978 0 0 0 19.376117-81.160339 459.177415 459.177415 0 0 1 8.408504-77.138881A61.418635 61.418635 0 0 1 697.937466 694.615516zM239.856812 694.615516h6.946156a73.117423 73.117423 0 0 1 43.504866 32.171666l38.386647 72.751835a430.296033 430.296033 0 0 0 50.451022 69.827139 121.374922 121.374922 0 0 1 31.074904 66.902442 57.03159 57.03159 0 0 1-47.891912 55.203654 157.933633 157.933633 0 0 1-101.998804-20.107291 354.6195 354.6195 0 0 0-121.374922-25.591098 39.483408 39.483408 0 0 1-29.612556-16.45142A69.095964 69.095964 0 0 1 114.094845 877.409073a99.805282 99.805282 0 0 0 0-47.526325 67.999203 67.999203 0 0 1 1.827936-40.214583c6.946155-14.257897 16.817007-16.817007 29.246969-22.666401a120.643747 120.643747 0 0 0 37.289886-20.838465c10.967613-11.333201 19.01053-25.591098 28.515794-36.558711a36.558711 36.558711 0 0 1 28.150208-14.257898zM544.390878 308.921111a156.836872 156.836872 0 0 1-63.246571 23.031988 97.977346 97.977346 0 0 1-54.47248-20.107291c-6.580568-5.483807-12.064375-11.333201-16.085833-14.257898s-5.849394-14.257897-2.924696-14.257897 5.483807 5.849394 8.408503 8.774091a156.471285 156.471285 0 0 1 15.354659 14.257897 88.837669 88.837669 0 0 0 49.35426 19.741704 133.804884 133.804884 0 0 0 59.5907-19.741704l27.419033-20.107291c6.946155-5.849394 6.580568-11.333201 12.064375-11.333201s0 5.849394-6.214981 14.257898-19.376117 13.89231-29.246969 19.741704z m-46.063976-67.268029v-2.193523a12.795549 12.795549 0 0 1 10.967613 0c2.924697 0 6.946155 2.55911 6.580568 5.483807s-3.655871 2.924697-5.849394 2.924697-4.021458 0-5.849393-2.924697-5.11822-1.096761-5.849394-3.290284z m-23.397576 0c0 2.193523-4.752632 1.827936-7.311742 2.55911s-3.655871 2.924697-5.849394 2.924697-5.483807 0-5.849393-2.924697 4.021458-5.483807 6.580568-5.483807a12.795549 12.795549 0 0 1 10.967613 0v2.193523z"
  ></path>
</svg>
