<svg viewBox="0 0 1024 1024" xmlns="http://www.w3.org/2000/svg">
  <path
    fill="currentColor"
    d="M378.88 435.2V731.428571h-104.594286V435.2z m6.826667-91.428571a45.592381 45.592381 0 0 1-16.091429 36.327619 62.415238 62.415238 0 0 1-42.910476 14.628571 59.733333 59.733333 0 0 1-41.935238-14.628571A48.761905 48.761905 0 0 1 268.190476 343.771429a47.055238 47.055238 0 0 1 16.335238-36.815239 62.659048 62.659048 0 0 1 42.666667-14.384761 60.708571 60.708571 0 0 1 42.179048 14.384761 48.761905 48.761905 0 0 1 16.335238 36.815239zM755.809524 560.761905v170.666666h-104.350476v-158.47619a83.139048 83.139048 0 0 0-12.921905-48.761905 46.567619 46.567619 0 0 0-40.228572-17.798095 53.638095 53.638095 0 0 0-33.401904 10.483809 62.902857 62.902857 0 0 0-20.236191 25.6 70.460952 70.460952 0 0 0-3.413333 24.380953V731.428571h-104.594286v-193.340952-102.887619h104.594286v42.910476a119.222857 119.222857 0 0 1 13.165714-16.579047 121.904762 121.904762 0 0 1 17.798095-15.60381 82.407619 82.407619 0 0 1 27.550477-12.921905 131.657143 131.657143 0 0 1 36.571428-4.632381A116.540952 116.540952 0 0 1 722.895238 463.238095 136.533333 136.533333 0 0 1 755.809524 560.761905z"
  ></path>
  <path
    class="border"
    d="M512 18.041905A493.958095 493.958095 0 1 1 18.041905 512 494.445714 494.445714 0 0 1 512 18.041905M512 0a512 512 0 1 0 512 512A512 512 0 0 0 512 0z"
  ></path>
</svg>
