<svg viewBox="0 0 1024 1024" xmlns="http://www.w3.org/2000/svg">
  <path
    fill="currentColor"
    d="M140.515556 369.777778V170.666667a29.013333 29.013333 0 0 1 28.444444-28.444445H369.777778A29.013333 29.013333 0 0 0 398.222222 113.777778V28.444444a29.013333 29.013333 0 0 0-28.444444-28.444444h-341.333334a29.013333 29.013333 0 0 0-28.444444 28.444444v341.333334a29.013333 29.013333 0 0 0 28.444444 28.444444H113.777778a29.013333 29.013333 0 0 0 26.737778-28.444444zM654.222222 140.515556H853.333333a29.013333 29.013333 0 0 1 28.444445 28.444444V369.777778a29.013333 29.013333 0 0 0 28.444444 28.444444h85.333334a29.013333 29.013333 0 0 0 28.444444-28.444444v-341.333334a29.013333 29.013333 0 0 0-28.444444-28.444444h-341.333334a29.013333 29.013333 0 0 0-28.444444 28.444444V113.777778a29.013333 29.013333 0 0 0 28.444444 26.737778zM369.777778 883.484444H170.666667a29.013333 29.013333 0 0 1-28.444445-28.444444V654.222222A29.013333 29.013333 0 0 0 113.777778 625.777778H28.444444a29.013333 29.013333 0 0 0-28.444444 28.444444v341.333334a29.013333 29.013333 0 0 0 28.444444 28.444444h341.333334a29.013333 29.013333 0 0 0 28.444444-28.444444V910.222222a29.013333 29.013333 0 0 0-28.444444-26.737778zM883.484444 654.222222V853.333333a29.013333 29.013333 0 0 1-28.444444 28.444445H654.222222a29.013333 29.013333 0 0 0-28.444444 28.444444v85.333334a29.013333 29.013333 0 0 0 28.444444 28.444444h341.333334a29.013333 29.013333 0 0 0 28.444444-28.444444v-341.333334a29.013333 29.013333 0 0 0-28.444444-28.444444H910.222222a29.013333 29.013333 0 0 0-26.737778 28.444444z"
  ></path>
</svg>
