<svg viewBox="0 0 1257 1024" xmlns="http://www.w3.org/2000/svg">
  <path
    fill="currentColor"
    d="M1154.997144 0.292404H102.341519a102.341519 102.341519 0 0 0-102.341519 102.341519v672.529983a102.341519 102.341519 0 0 0 77.48715 99.125072 190.062821 190.062821 0 0 0 370.622502 3.216447h361.11936a190.062821 190.062821 0 0 0 370.622501-3.216447 102.341519 102.341519 0 0 0 77.487151-99.125072v-672.529983a102.341519 102.341519 0 0 0-102.34152-102.341519z m-1067.275842 102.341519a14.620217 14.620217 0 0 1 14.620217-14.620217h1052.655625a14.620217 14.620217 0 0 1 14.620218 14.620217v672.529983a14.620217 14.620217 0 0 1-14.620218 14.620217H102.341519a14.620217 14.620217 0 0 1-14.620217-14.620217z m175.442604 833.352371a102.341519 102.341519 0 0 1-92.545973-58.480869h185.091947a102.341519 102.341519 0 0 1-92.545974 58.480869z m731.010851 0a102.341519 102.341519 0 0 1-92.545973-58.480869h185.091947a102.341519 102.341519 0 0 1-92.545974 58.480869z"
  ></path>
</svg>
