<svg viewBox="0 0 2126 1024" xmlns="http://www.w3.org/2000/svg">
  <path
    fill="currentColor"
    d="M472.615385 0h1654.153846v551.384615a472.615385 472.615385 0 0 1-472.615385 472.615385H0V472.615385a472.615385 472.615385 0 0 1 472.615385-472.615385z"
  ></path>
  <path
    fill="#FFFFFF"
    d="M692.381538 809.747692h-71.68L332.406154 372.578462v437.16923h-71.68v-551.384615h71.68l288.295384 437.956923V259.938462h71.68zM886.153846 319.015385v183.532307h200.073846v59.076923h-200.073846v189.046154h223.704616v59.076923h-295.384616v-551.384615h295.384616v59.076923zM1908.578462 260.726154l-157.538462 551.384615h-78.769231l-130.756923-444.258461-132.332308 441.895384h-78.76923l-153.6-551.384615h78.76923l119.729231 465.526154 129.181539-463.163077h78.76923l126.03077 463.950769 120.516923-463.950769z"
  ></path>
</svg>
