<svg viewBox="0 0 1024 1024" xmlns="http://www.w3.org/2000/svg">
  <path
    fill="currentColor"
    d="M610.628198 680.199494a829.093362 829.093362 0 0 1-83.390435-4.070835 38.117817 38.117817 0 1 1 8.511746-75.618841c97.083243 10.485484 245.730394 1.480304 271.388989-51.440549a39.228045 39.228045 0 0 1 51.933984-17.763643 37.007589 37.007589 0 0 1 18.133719 50.700397c-40.831707 83.637152-176.032767 98.193471-266.578003 98.193471z"
  ></path>
  <path
    fill="currentColor"
    d="M960.103201 642.451753A38.364534 38.364534 0 0 1 921.121874 604.457294V473.327069l-51.440549-18.257077a38.241176 38.241176 0 0 1-26.028672-35.897362c0-188.862065-157.405614-342.690278-350.708589-342.690278S141.865399 230.063848 141.865399 418.925913a37.007589 37.007589 0 0 1-16.653416 31.333092l-22.697988 15.913263v138.038309a38.981328 38.981328 0 0 1-77.839296 0V446.064811a37.8711 37.8711 0 0 1 16.406698-30.963016l22.944705-16.159981C74.758303 176.896278 262.633499 0 492.327271 0c226.979882 0 413.621491 173.565595 428.054451 391.910372l52.920853 18.503795a38.241176 38.241176 0 0 1 25.905313 35.897362v157.899048a38.73461 38.73461 0 0 1-39.104687 38.241176z"
  ></path>
  <path
    fill="currentColor"
    d="M648.252581 813.550175v-11.472353c34.170341-26.028671 61.679316-51.193832 77.592579-86.351042a701.29382 701.29382 0 0 1-106.828575 3.330683c-38.857969 0-72.288158 0.986869-92.518973-1.233586a80.18311 80.18311 0 0 1-68.834117-87.707987 77.592579 77.592579 0 0 1 86.351042-67.230455c86.351042 9.00518 182.570775-0.740152 220.688592-16.530056 1.727021-34.910493 1.233586-71.424648 1.233586-99.303698 0-162.956752-101.524154-259.053126-263.864112-262.877244h-23.931575c-162.586676 3.083966-259.916637 101.154078-259.916636 264.11083 0 100.660643 1.727021 265.221058 118.547644 354.409348V814.166968C180.846726 837.851825 61.312212 900.51801 61.312212 983.291652a41.201783 41.201783 0 0 0 39.72148 40.708348h764.823515c21.711119 0 49.343453-19.737381 49.343453-40.708348-0.740152-83.513794-111.022768-145.809902-266.948079-169.741477z"
  ></path>
</svg>
