<svg viewBox="0 0 1024 1024" xmlns="http://www.w3.org/2000/svg">
  <path
    fill="currentColor"
    d="M1024 232.991605c0-22.123457-2.275556-44.120494-5.05679-66.117531a223.130864 223.130864 0 0 0-18.962963-55.245432 189.62963 189.62963 0 0 0-36.408889-50.567901 199.74321 199.74321 0 0 0-50.567901-36.408889A214.91358 214.91358 0 0 0 857.125926 6.320988a518.320988 518.320988 0 0 0-65.611852-5.688889H232.991605a643.855802 643.855802 0 0 0-66.117531 5.18321 217.821235 217.821235 0 0 0-55.245432 18.836543 189.62963 189.62963 0 0 0-50.567901 36.408889 199.74321 199.74321 0 0 0-36.408889 50.567901A214.91358 214.91358 0 0 0 6.320988 166.874074a518.320988 518.320988 0 0 0-5.688889 65.611852v558.522469a643.855802 643.855802 0 0 0 5.18321 66.117531 217.821235 217.821235 0 0 0 18.836543 55.245432 189.62963 189.62963 0 0 0 36.408889 50.567901 199.74321 199.74321 0 0 0 50.567901 36.408889 214.91358 214.91358 0 0 0 55.245432 18.330864 518.320988 518.320988 0 0 0 65.611852 5.688889h558.522469c22.123457 0 44.120494-2.275556 66.117531-5.05679a223.130864 223.130864 0 0 0 55.245432-18.962963 189.62963 189.62963 0 0 0 50.567901-36.408889 199.74321 199.74321 0 0 0 36.408889-50.567901 214.91358 214.91358 0 0 0 18.330864-55.245432 518.320988 518.320988 0 0 0 5.688889-65.611852V232.991605zM523.757037 870.4A363.70963 363.70963 0 0 1 347.654321 824.25679l-194.56 50.567901 51.705679-189.756049a365.858765 365.858765 0 1 1 318.957037 185.331358z m0-672.300247a307.2 307.2 0 0 0-258.528395 467.753087l7.205926 11.757037-30.72 112.51358 116.685432-31.731358 11.251358 6.700247A305.430123 305.430123 0 0 0 830.451358 499.358025a302.522469 302.522469 0 0 0-307.2-301.637531z m179.26321 436.274568a93.424198 93.424198 0 0 1-61.945679 43.488395 119.340247 119.340247 0 0 1-57.394568-3.539753 463.328395 463.328395 0 0 1-51.2-19.468642 408.082963 408.082963 0 0 1-156.634074-138.30321 177.746173 177.746173 0 0 1-37.925926-94.688395 102.4 102.4 0 0 1 32.237037-76.73679 32.869136 32.869136 0 0 1 25.283951-11.251358h14.159012c5.688889 0 13.274074 0 20.48 15.802469s26.168889 63.209877 28.697284 68.140247a17.445926 17.445926 0 0 1 0 15.802469 61.69284 61.69284 0 0 1-9.228642 15.17037c-4.677531 5.562469-9.734321 12.641975-13.779753 16.308149a13.526914 13.526914 0 0 0-4.171852 18.457284 284.950123 284.950123 0 0 0 50.567901 63.209876 255.87358 255.87358 0 0 0 73.702716 45.637531c9.228642 4.551111 14.917531 4.045432 19.974321 0a284.065185 284.065185 0 0 0 29.202963-35.90321c6.194568-9.228642 12.641975-7.585185 20.48-4.551111s53.728395 25.283951 63.209877 29.708642 14.917531 6.573827 17.445926 10.745679a79.518025 79.518025 0 0 1-3.539753 39.948642z"
  ></path>
</svg>
