<svg viewBox="0 0 1024 1024" xmlns="http://www.w3.org/2000/svg">
  <path
    fill="currentColor"
    d="M550.765714 640a87.527619 87.527619 0 0 1-74.605714-38.034286l-20.23619 78.506667a354.742857 354.742857 0 0 1-41.44762 86.552381c-1.462857 4.388571-13.409524 13.165714-13.409523 13.165714a62.171429 62.171429 0 0 1-7.801905-21.942857 323.779048 323.779048 0 0 1 0-94.598095c5.851429-25.84381 38.034286-164.08381 38.034286-164.08381a120.198095 120.198095 0 0 1-9.508572-48.761904c0-45.83619 26.087619-79.969524 58.514286-79.969524a41.20381 41.20381 0 0 1 41.447619 40.71619 43.154286 43.154286 0 0 1 0 5.607619 658.285714 658.285714 0 0 1-27.062857 109.958095A48.761905 48.761905 0 0 0 530.529524 585.142857a53.638095 53.638095 0 0 0 13.897143 1.219048c57.539048 0 101.912381-61.68381 101.912381-150.918095a129.219048 129.219048 0 0 0-124.099048-134.095239H512A141.165714 141.165714 0 0 0 365.714286 438.857143a130.681905 130.681905 0 0 0 24.380952 81.92 9.752381 9.752381 0 0 1 2.438095 9.508571c-2.438095 10.24-8.045714 32.914286-9.020952 37.546667s-4.632381 7.314286-10.971429 4.388571a148.23619 148.23619 0 0 1-65.828571-127.75619c0-104.106667 74.361905-199.68 214.308571-199.68a191.878095 191.878095 0 0 1 199.92381 183.832381 63.878095 63.878095 0 0 1 0 6.826667c0 113.615238-70.217143 205.287619-168.472381 205.287619"
  ></path>
  <path
    class="border"
    d="M512 18.041905A493.958095 493.958095 0 1 1 18.041905 512 494.445714 494.445714 0 0 1 512 18.041905M512 0a512 512 0 1 0 512 512A512 512 0 0 0 512 0z"
  ></path>
</svg>
