<svg viewBox="0 0 1024 1024" xmlns="http://www.w3.org/2000/svg">
  <path
    class="border"
    d="M512 18.041905A493.958095 493.958095 0 1 1 18.041905 512 494.445714 494.445714 0 0 1 512 18.041905M512 0a512 512 0 1 0 512 512A512 512 0 0 0 512 0z"
  ></path>
  <path
    fill="currentColor"
    d="M365.714286 548.571429a36.571429 36.571429 0 1 0 36.571428-36.571429 36.571429 36.571429 0 0 0-36.571428 36.571429zM586.849524 626.834286a126.049524 126.049524 0 0 1-149.699048 0 21.699048 21.699048 0 1 0-27.062857 33.889524 169.20381 169.20381 0 0 0 203.824762 0 21.699048 21.699048 0 0 0-27.062857-33.889524z"
  ></path>
  <path
    fill="currentColor"
    d="M804.571429 475.428571a73.142857 73.142857 0 0 0-137.020953-36.571428 323.291429 323.291429 0 0 0-133.363809-36.815238l43.641904-97.52381 83.626667 24.380953a54.857143 54.857143 0 1 0 3.413333-44.373334l-93.135238-26.819047a21.942857 21.942857 0 0 0-25.843809 11.946666L487.619048 403.017143A320.853333 320.853333 0 0 0 356.449524 438.857143a73.142857 73.142857 0 1 0-93.379048 102.643809A132.632381 132.632381 0 0 0 256 585.142857c0 100.937143 114.590476 182.857143 256 182.857143s256-81.92 256-182.857143a131.657143 131.657143 0 0 0-7.070476-42.666667A73.142857 73.142857 0 0 0 804.571429 475.428571z m-91.428572-185.051428a20.48 20.48 0 1 1-20.48 20.48 20.23619 20.23619 0 0 1 20.48-20.48zM256 475.428571a36.571429 36.571429 0 0 1 69.729524-15.603809 190.659048 190.659048 0 0 0-46.811429 48.761905 36.571429 36.571429 0 0 1-22.918095-33.158096zM512 724.601905c-117.51619 0-212.601905-62.415238-212.601905-139.459048s95.085714-139.459048 212.601905-139.459047 212.601905 62.415238 212.601905 139.459047-95.085714 139.459048-212.601905 139.459048z m233.081905-215.28381a190.659048 190.659048 0 0 0-46.811429-48.761905 36.571429 36.571429 0 1 1 46.811429 48.761905z"
  ></path>
  <path
    fill="currentColor"
    d="M585.142857 548.571429a36.571429 36.571429 0 1 0 36.571429-36.571429 36.571429 36.571429 0 0 0-36.571429 36.571429z"
  ></path>
</svg>
