<svg viewBox="0 0 1228 1024" xmlns="http://www.w3.org/2000/svg">
  <path
    fill="currentColor"
    d="M1220.608 296.96L1005.568 10.24a26.624 26.624 0 0 0-20.48-10.24H242.688a26.624 26.624 0 0 0-20.48 10.24L4.096 296.96a24.576 24.576 0 0 0 0 29.696l588.8 688.128a26.624 26.624 0 0 0 39.936 0l587.776-688.128a23.552 23.552 0 0 0 0-29.696zM959.488 451.584L628.736 837.632a24.576 24.576 0 0 1-35.84 0L273.408 460.8c-8.192-10.24-21.504-26.624 0-26.624h77.824a23.552 23.552 0 0 1 18.432 8.192L595.968 706.56a23.552 23.552 0 0 0 35.84 0l227.328-264.192a23.552 23.552 0 0 1 18.432-8.192h81.92c13.312 0 8.192 10.24 0 17.408z"
  ></path>
</svg>
