<svg viewBox="0 0 1043 1024" xmlns="http://www.w3.org/2000/svg">
  <path
    fill="currentColor"
    d="M520.693835 0C233.529781 0 0 236.739812 0 527.648903v402.725183a93.625914 93.625914 0 0 0 93.625914 93.625914h151.138976a120.376176 120.376176 0 0 0 120.376176-120.376176V714.76698a120.376176 120.376176 0 0 0-120.376176-120.376175H80.250784v-66.875653C80.250784 280.877743 277.801463 80.117032 520.693835 80.117032A445.525601 445.525601 0 0 1 963.009404 527.648903v66.875653H798.495298a120.376176 120.376176 0 0 0-120.376176 120.376175v188.723093a120.376176 120.376176 0 0 0 120.376176 120.376176H949.634274a93.625914 93.625914 0 0 0 93.625914-93.625914V527.648903A525.776385 525.776385 0 0 0 520.693835 0zM284.890282 714.76698v188.856844a40.125392 40.125392 0 0 1-40.125392 40.125392H93.625914a13.375131 13.375131 0 0 1-13.37513-13.37513V674.641588h164.514106a40.125392 40.125392 0 0 1 40.125392 40.125392zM963.009404 930.374086a13.375131 13.375131 0 0 1-13.37513 13.37513H798.495298a40.125392 40.125392 0 0 1-40.125392-40.125392V714.76698a40.125392 40.125392 0 0 1 40.125392-40.125392H963.009404z"
  ></path>
</svg>
