<svg viewBox="0 0 1147 1024" xmlns="http://www.w3.org/2000/svg">
  <path
    fill="currentColor"
    d="M934.381312 1001.963961a51.198976 51.198976 0 0 1-69.630607 0 51.198976 51.198976 0 0 1 0-68.606628 574.452511 574.452511 0 0 0 0-839.663207 51.198976 51.198976 0 0 1 0-68.606628 51.198976 51.198976 0 0 1 69.630607 0 670.706586 670.706586 0 0 1 0 979.948401z"
  ></path>
  <path
    fill="currentColor"
    d="M821.743565 807.407852a51.198976 51.198976 0 0 1-70.142597 0 48.127037 48.127037 0 0 1 0-68.094638 303.097938 303.097938 0 0 0 0-449.52701 51.198976 51.198976 0 0 1-2.559949-68.094638 51.198976 51.198976 0 0 1 70.142597 0 399.352013 399.352013 0 0 1 0 590.836183zM623.603528 5.631887a61.950761 61.950761 0 0 0-63.48673 7.167857L247.803044 255.99488H59.390812A58.366833 58.366833 0 0 0 0 312.825743v398.328034A58.366833 58.366833 0 0 0 59.390812 767.98464h188.412232l312.313754 243.195136a62.462751 62.462751 0 0 0 37.887242 12.799744 58.366833 58.366833 0 0 0 59.902802-56.830863V56.830863a56.318874 56.318874 0 0 0-34.303314-51.198976z m-85.50229 841.199176L306.681866 665.586688a61.438771 61.438771 0 0 0-37.887242-12.799744H119.293614V369.656607h149.50101a61.438771 61.438771 0 0 0 37.887242-12.799744l231.419372-179.708406z"
  ></path>
</svg>
