<svg viewBox="0 0 1024 1024" xmlns="http://www.w3.org/2000/svg">
  <path
    fill="currentColor"
    d="M921.925489 439.012448l-267.130353-282.022638v186.153556h-85.630636a477.018489 477.018489 0 0 0-481.206944 412.330128 640.833619 640.833619 0 0 1 480.74156-218.730429h85.165252v186.153557l267.595738-282.488022z m-438.391626 189.411244C268.991889 662.8621 87.026788 822.023391 46.538389 1024a535.191475 535.191475 0 0 1-46.538389-218.265045 558.46067 558.46067 0 0 1 569.1645-549.152992V41.109221a35.369176 35.369176 0 0 1 10.703829-30.249953 39.557631 39.557631 0 0 1 54.449915 0l378.357104 400.230147a40.488399 40.488399 0 0 1 0 55.846067l-376.495568 397.903227a37.696095 37.696095 0 0 1-53.519148 5.119223l-2.792303-2.792304a35.369176 35.369176 0 0 1-10.703829-30.249952v-215.007358a562.183741 562.183741 0 0 0-79.580646 5.584606h-5.584607z"
  ></path>
</svg>
