<svg viewBox="0 0 1179 1024" xmlns="http://www.w3.org/2000/svg">
  <path
    fill="currentColor"
    d="M623.603528 5.631887a61.950761 61.950761 0 0 0-63.48673 7.167857L247.803044 255.99488H59.390812A58.366833 58.366833 0 0 0 0 312.825743v398.328034A58.366833 58.366833 0 0 0 59.390812 767.98464h188.412232l312.313754 243.195136a62.462751 62.462751 0 0 0 37.887242 12.799744 58.366833 58.366833 0 0 0 59.902802-56.830863V56.830863a56.318874 56.318874 0 0 0-34.303314-51.198976z m-85.50229 841.199176L306.681866 665.586688a61.438771 61.438771 0 0 0-37.887242-12.799744H119.293614V369.656607h149.50101a61.438771 61.438771 0 0 0 37.887242-12.799744l231.419372-179.708406zM1071.594568 511.98976l96.254075-96.254075a38.399232 38.399232 0 0 0 0-54.270914l-30.719386-30.207396a38.399232 38.399232 0 0 0-54.270914 0l-95.742085 96.254075-96.254075-96.254075a38.399232 38.399232 0 0 0-54.270915 0l-30.207396 30.207396a38.399232 38.399232 0 0 0 0 54.270914L902.125957 511.98976l-95.742085 96.254075a38.399232 38.399232 0 0 0 0 54.270915l30.207396 30.207396a38.399232 38.399232 0 0 0 54.270915 0l96.254075-96.254075 95.742085 96.254075a38.399232 38.399232 0 0 0 54.270914 0l30.719386-30.207396a38.399232 38.399232 0 0 0 0-54.270915z"
  ></path>
</svg>
