<svg viewBox="0 0 1024 1024" xmlns="http://www.w3.org/2000/svg">
  <path
    fill="currentColor"
    d="M914.755091 392.074937a405.477863 405.477863 0 0 0-810.512581 0 147.124208 147.124208 0 0 0-81.981863 132.943561v122.308077a146.681063 146.681063 0 0 0 147.567353 146.681063h34.122181a33.23589 33.23589 0 0 0 33.235891-33.23589v-350.084713a33.679036 33.679036 0 0 0-33.679036-33.679035h-31.463309a339.006082 339.006082 0 0 1 674.910148 0h-30.577019a33.679036 33.679036 0 0 0-33.679036 33.679035v349.641568a33.679036 33.679036 0 0 0 33.679036 33.679035h10.635485a161.304855 161.304855 0 0 1-39.883069 75.334685 257.91051 257.91051 0 0 1-185.677841 62.040329 33.23589 33.23589 0 0 0-32.3496-23.929841H452.554642a33.679036 33.679036 0 0 0-33.679036 33.679036v48.745972a33.679036 33.679036 0 0 0 33.679036 34.122181h115.217753a33.679036 33.679036 0 0 0 32.3496-26.145567 323.052855 323.052855 0 0 0 234.866959-84.640734 226.004055 226.004055 0 0 0 60.710894-129.398401A146.681063 146.681063 0 0 0 997.1801 647.326575v-123.637512a146.681063 146.681063 0 0 0-82.425009-132.943562z"
  ></path>
</svg>
