<svg viewBox="0 0 1024 1024" xmlns="http://www.w3.org/2000/svg">
  <path
    fill="currentColor"
    d="M269.409524 283.794286L457.630476 536.380952 268.190476 740.205714h42.666667l165.790476-179.443809 134.095238 179.2H755.809524l-198.704762-265.752381 176.274286-190.415238h-42.666667l-152.868571 165.059047L414.47619 283.794286z m62.659047 31.451428h66.56l294.521905 393.508572h-66.803809L332.068571 315.245714z"
  ></path>
  <path
    class="border"
    d="M512 18.041905A493.958095 493.958095 0 1 1 18.041905 512 494.445714 494.445714 0 0 1 512 18.041905M512 0a512 512 0 1 0 512 512A512 512 0 0 0 512 0z"
  ></path>
</svg>
