<svg viewBox="0 0 1024 1024" xmlns="http://www.w3.org/2000/svg">
  <path
    fill="currentColor"
    d="M599.771429 268.190476a132.388571 132.388571 0 0 0 131.657142 132.876191v88.746666a216.746667 216.746667 0 0 1-131.657142-44.373333v155.306667a153.6 153.6 0 1 1-153.6-155.306667v88.746667a66.56 66.56 0 1 0 65.828571 66.56V268.190476z"
  ></path>
  <path
    class="border"
    d="M512 18.041905A493.958095 493.958095 0 1 1 18.041905 512 494.445714 494.445714 0 0 1 512 18.041905M512 0a512 512 0 1 0 512 512A512 512 0 0 0 512 0z"
  ></path>
</svg>
