<svg viewBox="0 0 1024 1024" xmlns="http://www.w3.org/2000/svg">
  <path
    fill="currentColor"
    d="M743.619048 354.011429a176.518095 176.518095 0 0 1-54.613334 16.091428A102.15619 102.15619 0 0 0 731.428571 312.56381a179.931429 179.931429 0 0 1-60.220952 24.380952 90.697143 90.697143 0 0 0-69.485714-33.158095 100.205714 100.205714 0 0 0-94.841905 104.594285 130.194286 130.194286 0 0 0 2.438095 24.380953 261.36381 261.36381 0 0 1-195.047619-109.470476 111.664762 111.664762 0 0 0-12.921905 52.906666A108.007619 108.007619 0 0 0 341.333333 463.238095a87.771429 87.771429 0 0 1-42.910476-13.165714v1.219048a102.64381 102.64381 0 0 0 76.312381 102.643809 96.060952 96.060952 0 0 1-24.380952 3.657143 112.88381 112.88381 0 0 1-18.041905-1.706667 97.52381 97.52381 0 0 0 88.746667 73.142857 179.2 179.2 0 0 1-117.76 44.617143 175.786667 175.786667 0 0 1-22.918096-1.219047 250.88 250.88 0 0 0 146.285715 46.811428c174.567619 0 270.140952-159.207619 270.140952-297.447619v-13.653333a215.771429 215.771429 0 0 0 46.811429-54.125714z"
  ></path>
  <path
    class="border"
    d="M512 18.041905A493.958095 493.958095 0 1 1 18.041905 512 494.445714 494.445714 0 0 1 512 18.041905M512 0a512 512 0 1 0 512 512A512 512 0 0 0 512 0z"
  ></path>
</svg>
