<svg viewBox="0 0 1024 1024" xmlns="http://www.w3.org/2000/svg">
  <path
    fill="currentColor"
    d="M671.939048 512a35.352381 35.352381 0 0 0-16.579048-29.500952l-240.88381-146.285715a42.910476 42.910476 0 0 0-21.455238-5.851428A38.278095 38.278095 0 0 0 352.060952 365.714286v292.571428a39.009524 39.009524 0 0 0 39.984762 36.571429 40.228571 40.228571 0 0 0 21.455238-5.607619l240.152381-146.285714a35.108571 35.108571 0 0 0 18.285715-30.96381z"
  ></path>
  <path
    class="border"
    d="M512 18.041905A493.958095 493.958095 0 1 1 18.041905 512 494.445714 494.445714 0 0 1 512 18.041905M512 0a512 512 0 1 0 512 512A512 512 0 0 0 512 0z"
  ></path>
</svg>
